<?xml version="1.0" encoding="utf-8"?>
<svg xmlns="http://www.w3.org/2000/svg" xmlns:xlink="http://www.w3.org/1999/xlink" xml:space="preserve" width="990" height="990" viewBox="0 0 990 990"><defs><linearGradient id="pattern-mask" x1="0%" y1="0%" x2="12%" y2="100%" gradientUnits="userSpaceOnUse"><stop offset="0%" stop-color="#017416"/><stop offset="100%" stop-color="#000000"/></linearGradient>
<mask id="qrmask"><g fill="#ffffff"><g>
<g transform="translate(220,44) scale(3.7766666666667) rotate(-6)"><rect x="0.5" y="0.5" width="5" height="5"/></g>
<g transform="translate(352,44) scale(3.7766666666667) rotate(1)"><rect x="0.5" y="0.5" width="5" height="5"/></g>
<g transform="translate(396,44) scale(3.7766666666667) rotate(-1)"><rect x="0.5" y="0.5" width="5" height="5"/></g>
<g transform="translate(418,44) scale(3.7766666666667) rotate(4)"><rect x="0.5" y="0.5" width="5" height="5"/></g>
<g transform="translate(440,44) scale(3.7766666666667) rotate(-8)"><rect x="0.5" y="0.5" width="5" height="5"/></g>
<g transform="translate(462,44) scale(3.7766666666667) rotate(8)"><rect x="0.5" y="0.5" width="5" height="5"/></g>
<g transform="translate(506,44) scale(3.7766666666667) rotate(1)"><rect x="0.5" y="0.5" width="5" height="5"/></g>
<g transform="translate(528,44) scale(3.7766666666667) rotate(3)"><rect x="0.5" y="0.5" width="5" height="5"/></g>
<g transform="translate(550,44) scale(3.7766666666667) rotate(9)"><rect x="0.5" y="0.5" width="5" height="5"/></g>
<g transform="translate(572,44) scale(3.7766666666667) rotate(-10)"><rect x="0.5" y="0.5" width="5" height="5"/></g>
<g transform="translate(594,44) scale(3.7766666666667) rotate(3)"><rect x="0.5" y="0.5" width="5" height="5"/></g>
<g transform="translate(660,44) scale(3.7766666666667) rotate(-8)"><rect x="0.5" y="0.5" width="5" height="5"/></g>
<g transform="translate(726,44) scale(3.7766666666667) rotate(-1)"><rect x="0.5" y="0.5" width="5" height="5"/></g>
<g transform="translate(748,44) scale(3.7766666666667) rotate(5)"><rect x="0.5" y="0.5" width="5" height="5"/></g>
<g transform="translate(220,66) scale(3.7766666666667) rotate(10)"><rect x="0.5" y="0.5" width="5" height="5"/></g>
<g transform="translate(242,66) scale(3.7766666666667) rotate(-5)"><rect x="0.5" y="0.5" width="5" height="5"/></g>
<g transform="translate(264,66) scale(3.7766666666667) rotate(1)"><rect x="0.5" y="0.5" width="5" height="5"/></g>
<g transform="translate(308,66) scale(3.7766666666667) rotate(-9)"><rect x="0.5" y="0.5" width="5" height="5"/></g>
<g transform="translate(352,66) scale(3.7766666666667) rotate(-5)"><rect x="0.5" y="0.5" width="5" height="5"/></g>
<g transform="translate(374,66) scale(3.7766666666667) rotate(-10)"><rect x="0.5" y="0.5" width="5" height="5"/></g>
<g transform="translate(418,66) scale(3.7766666666667) rotate(-2)"><rect x="0.5" y="0.5" width="5" height="5"/></g>
<g transform="translate(440,66) scale(3.7766666666667) rotate(5)"><rect x="0.5" y="0.5" width="5" height="5"/></g>
<g transform="translate(462,66) scale(3.7766666666667) rotate(2)"><rect x="0.5" y="0.5" width="5" height="5"/></g>
<g transform="translate(484,66) scale(3.7766666666667) rotate(-2)"><rect x="0.5" y="0.5" width="5" height="5"/></g>
<g transform="translate(506,66) scale(3.7766666666667) rotate(9)"><rect x="0.5" y="0.5" width="5" height="5"/></g>
<g transform="translate(528,66) scale(3.7766666666667) rotate(4)"><rect x="0.5" y="0.5" width="5" height="5"/></g>
<g transform="translate(594,66) scale(3.7766666666667) rotate(5)"><rect x="0.5" y="0.5" width="5" height="5"/></g>
<g transform="translate(616,66) scale(3.7766666666667) rotate(-5)"><rect x="0.5" y="0.5" width="5" height="5"/></g>
<g transform="translate(638,66) scale(3.7766666666667) rotate(9)"><rect x="0.5" y="0.5" width="5" height="5"/></g>
<g transform="translate(660,66) scale(3.7766666666667) rotate(-3)"><rect x="0.5" y="0.5" width="5" height="5"/></g>
<g transform="translate(704,66) scale(3.7766666666667) rotate(7)"><rect x="0.5" y="0.5" width="5" height="5"/></g>
<g transform="translate(220,88) scale(3.7766666666667) rotate(-4)"><rect x="0.5" y="0.5" width="5" height="5"/></g>
<g transform="translate(242,88) scale(3.7766666666667) rotate(-2)"><rect x="0.5" y="0.5" width="5" height="5"/></g>
<g transform="translate(264,88) scale(3.7766666666667) rotate(-10)"><rect x="0.5" y="0.5" width="5" height="5"/></g>
<g transform="translate(308,88) scale(3.7766666666667) rotate(10)"><rect x="0.5" y="0.5" width="5" height="5"/></g>
<g transform="translate(352,88) scale(3.7766666666667) rotate(5)"><rect x="0.5" y="0.5" width="5" height="5"/></g>
<g transform="translate(374,88) scale(3.7766666666667) rotate(-8)"><rect x="0.5" y="0.5" width="5" height="5"/></g>
<g transform="translate(418,88) scale(3.7766666666667) rotate(-7)"><rect x="0.5" y="0.5" width="5" height="5"/></g>
<g transform="translate(572,88) scale(3.7766666666667) rotate(10)"><rect x="0.5" y="0.5" width="5" height="5"/></g>
<g transform="translate(594,88) scale(3.7766666666667) rotate(-5)"><rect x="0.5" y="0.5" width="5" height="5"/></g>
<g transform="translate(660,88) scale(3.7766666666667) rotate(-10)"><rect x="0.5" y="0.5" width="5" height="5"/></g>
<g transform="translate(726,88) scale(3.7766666666667) rotate(-1)"><rect x="0.5" y="0.5" width="5" height="5"/></g>
<g transform="translate(748,88) scale(3.7766666666667) rotate(-8)"><rect x="0.5" y="0.5" width="5" height="5"/></g>
<g transform="translate(242,110) scale(3.7766666666667) rotate(-7)"><rect x="0.5" y="0.5" width="5" height="5"/></g>
<g transform="translate(264,110) scale(3.7766666666667) rotate(-3)"><rect x="0.5" y="0.5" width="5" height="5"/></g>
<g transform="translate(286,110) scale(3.7766666666667) rotate(-6)"><rect x="0.5" y="0.5" width="5" height="5"/></g>
<g transform="translate(352,110) scale(3.7766666666667) rotate(2)"><rect x="0.5" y="0.5" width="5" height="5"/></g>
<g transform="translate(440,110) scale(3.7766666666667) rotate(-9)"><rect x="0.5" y="0.5" width="5" height="5"/></g>
<g transform="translate(506,110) scale(3.7766666666667) rotate(-3)"><rect x="0.5" y="0.5" width="5" height="5"/></g>
<g transform="translate(528,110) scale(3.7766666666667) rotate(-1)"><rect x="0.5" y="0.5" width="5" height="5"/></g>
<g transform="translate(550,110) scale(3.7766666666667) rotate(10)"><rect x="0.5" y="0.5" width="5" height="5"/></g>
<g transform="translate(572,110) scale(3.7766666666667) rotate(-8)"><rect x="0.5" y="0.5" width="5" height="5"/></g>
<g transform="translate(616,110) scale(3.7766666666667) rotate(-4)"><rect x="0.5" y="0.5" width="5" height="5"/></g>
<g transform="translate(704,110) scale(3.7766666666667) rotate(-4)"><rect x="0.5" y="0.5" width="5" height="5"/></g>
<g transform="translate(726,110) scale(3.7766666666667) rotate(-5)"><rect x="0.5" y="0.5" width="5" height="5"/></g>
<g transform="translate(286,132) scale(3.7766666666667) rotate(1)"><rect x="0.5" y="0.5" width="5" height="5"/></g>
<g transform="translate(308,132) scale(3.7766666666667) rotate(-3)"><rect x="0.5" y="0.5" width="5" height="5"/></g>
<g transform="translate(374,132) scale(3.7766666666667) rotate(1)"><rect x="0.5" y="0.5" width="5" height="5"/></g>
<g transform="translate(418,132) scale(3.7766666666667) rotate(6)"><rect x="0.5" y="0.5" width="5" height="5"/></g>
<g transform="translate(462,132) scale(3.7766666666667) rotate(9)"><rect x="0.5" y="0.5" width="5" height="5"/></g>
<g transform="translate(484,132) scale(3.7766666666667) rotate(8)"><rect x="0.5" y="0.5" width="5" height="5"/></g>
<g transform="translate(506,132) scale(3.7766666666667) rotate(-3)"><rect x="0.5" y="0.5" width="5" height="5"/></g>
<g transform="translate(528,132) scale(3.7766666666667) rotate(0)"><rect x="0.5" y="0.5" width="5" height="5"/></g>
<g transform="translate(550,132) scale(3.7766666666667) rotate(-7)"><rect x="0.5" y="0.5" width="5" height="5"/></g>
<g transform="translate(594,132) scale(3.7766666666667) rotate(7)"><rect x="0.5" y="0.5" width="5" height="5"/></g>
<g transform="translate(726,132) scale(3.7766666666667) rotate(-9)"><rect x="0.5" y="0.5" width="5" height="5"/></g>
<g transform="translate(748,132) scale(3.7766666666667) rotate(0)"><rect x="0.5" y="0.5" width="5" height="5"/></g>
<g transform="translate(220,154) scale(3.7766666666667) rotate(6)"><rect x="0.5" y="0.5" width="5" height="5"/></g>
<g transform="translate(286,154) scale(3.7766666666667) rotate(-8)"><rect x="0.5" y="0.5" width="5" height="5"/></g>
<g transform="translate(308,154) scale(3.7766666666667) rotate(5)"><rect x="0.5" y="0.5" width="5" height="5"/></g>
<g transform="translate(352,154) scale(3.7766666666667) rotate(5)"><rect x="0.5" y="0.5" width="5" height="5"/></g>
<g transform="translate(418,154) scale(3.7766666666667) rotate(-5)"><rect x="0.5" y="0.5" width="5" height="5"/></g>
<g transform="translate(440,154) scale(3.7766666666667) rotate(4)"><rect x="0.5" y="0.5" width="5" height="5"/></g>
<g transform="translate(462,154) scale(3.7766666666667) rotate(8)"><rect x="0.5" y="0.5" width="5" height="5"/></g>
<g transform="translate(484,154) scale(3.7766666666667) rotate(9)"><rect x="0.5" y="0.5" width="5" height="5"/></g>
<g transform="translate(550,154) scale(3.7766666666667) rotate(-5)"><rect x="0.5" y="0.5" width="5" height="5"/></g>
<g transform="translate(572,154) scale(3.7766666666667) rotate(1)"><rect x="0.5" y="0.5" width="5" height="5"/></g>
<g transform="translate(594,154) scale(3.7766666666667) rotate(-9)"><rect x="0.5" y="0.5" width="5" height="5"/></g>
<g transform="translate(638,154) scale(3.7766666666667) rotate(-6)"><rect x="0.5" y="0.5" width="5" height="5"/></g>
<g transform="translate(682,154) scale(3.7766666666667) rotate(1)"><rect x="0.5" y="0.5" width="5" height="5"/></g>
<g transform="translate(704,154) scale(3.7766666666667) rotate(9)"><rect x="0.5" y="0.5" width="5" height="5"/></g>
<g transform="translate(748,154) scale(3.7766666666667) rotate(10)"><rect x="0.5" y="0.5" width="5" height="5"/></g>
<g transform="translate(220,176) scale(3.7766666666667) rotate(0)"><rect x="0.5" y="0.5" width="5" height="5"/></g>
<g transform="translate(264,176) scale(3.7766666666667) rotate(9)"><rect x="0.5" y="0.5" width="5" height="5"/></g>
<g transform="translate(308,176) scale(3.7766666666667) rotate(1)"><rect x="0.5" y="0.5" width="5" height="5"/></g>
<g transform="translate(352,176) scale(3.7766666666667) rotate(-3)"><rect x="0.5" y="0.5" width="5" height="5"/></g>
<g transform="translate(396,176) scale(3.7766666666667) rotate(-4)"><rect x="0.5" y="0.5" width="5" height="5"/></g>
<g transform="translate(440,176) scale(3.7766666666667) rotate(5)"><rect x="0.5" y="0.5" width="5" height="5"/></g>
<g transform="translate(484,176) scale(3.7766666666667) rotate(4)"><rect x="0.5" y="0.5" width="5" height="5"/></g>
<g transform="translate(528,176) scale(3.7766666666667) rotate(9)"><rect x="0.5" y="0.5" width="5" height="5"/></g>
<g transform="translate(572,176) scale(3.7766666666667) rotate(1)"><rect x="0.5" y="0.5" width="5" height="5"/></g>
<g transform="translate(616,176) scale(3.7766666666667) rotate(0)"><rect x="0.5" y="0.5" width="5" height="5"/></g>
<g transform="translate(660,176) scale(3.7766666666667) rotate(-5)"><rect x="0.5" y="0.5" width="5" height="5"/></g>
<g transform="translate(704,176) scale(3.7766666666667) rotate(2)"><rect x="0.5" y="0.5" width="5" height="5"/></g>
<g transform="translate(748,176) scale(3.7766666666667) rotate(-6)"><rect x="0.5" y="0.5" width="5" height="5"/></g>
<g transform="translate(220,198) scale(3.7766666666667) rotate(-1)"><rect x="0.5" y="0.5" width="5" height="5"/></g>
<g transform="translate(242,198) scale(3.7766666666667) rotate(3)"><rect x="0.5" y="0.5" width="5" height="5"/></g>
<g transform="translate(264,198) scale(3.7766666666667) rotate(-7)"><rect x="0.5" y="0.5" width="5" height="5"/></g>
<g transform="translate(330,198) scale(3.7766666666667) rotate(9)"><rect x="0.5" y="0.5" width="5" height="5"/></g>
<g transform="translate(396,198) scale(3.7766666666667) rotate(7)"><rect x="0.5" y="0.5" width="5" height="5"/></g>
<g transform="translate(462,198) scale(3.7766666666667) rotate(5)"><rect x="0.5" y="0.5" width="5" height="5"/></g>
<g transform="translate(484,198) scale(3.7766666666667) rotate(-1)"><rect x="0.5" y="0.5" width="5" height="5"/></g>
<g transform="translate(572,198) scale(3.7766666666667) rotate(2)"><rect x="0.5" y="0.5" width="5" height="5"/></g>
<g transform="translate(594,198) scale(3.7766666666667) rotate(-7)"><rect x="0.5" y="0.5" width="5" height="5"/></g>
<g transform="translate(726,198) scale(3.7766666666667) rotate(-9)"><rect x="0.5" y="0.5" width="5" height="5"/></g>
<g transform="translate(748,198) scale(3.7766666666667) rotate(0)"><rect x="0.5" y="0.5" width="5" height="5"/></g>
<g transform="translate(88,220) scale(3.7766666666667) rotate(-9)"><rect x="0.5" y="0.5" width="5" height="5"/></g>
<g transform="translate(110,220) scale(3.7766666666667) rotate(6)"><rect x="0.5" y="0.5" width="5" height="5"/></g>
<g transform="translate(132,220) scale(3.7766666666667) rotate(10)"><rect x="0.5" y="0.5" width="5" height="5"/></g>
<g transform="translate(176,220) scale(3.7766666666667) rotate(3)"><rect x="0.5" y="0.5" width="5" height="5"/></g>
<g transform="translate(220,220) scale(3.7766666666667) rotate(1)"><rect x="0.5" y="0.5" width="5" height="5"/></g>
<g transform="translate(242,220) scale(3.7766666666667) rotate(2)"><rect x="0.5" y="0.5" width="5" height="5"/></g>
<g transform="translate(264,220) scale(3.7766666666667) rotate(10)"><rect x="0.5" y="0.5" width="5" height="5"/></g>
<g transform="translate(286,220) scale(3.7766666666667) rotate(-4)"><rect x="0.5" y="0.5" width="5" height="5"/></g>
<g transform="translate(308,220) scale(3.7766666666667) rotate(-3)"><rect x="0.5" y="0.5" width="5" height="5"/></g>
<g transform="translate(374,220) scale(3.7766666666667) rotate(-6)"><rect x="0.5" y="0.5" width="5" height="5"/></g>
<g transform="translate(396,220) scale(3.7766666666667) rotate(0)"><rect x="0.5" y="0.5" width="5" height="5"/></g>
<g transform="translate(418,220) scale(3.7766666666667) rotate(9)"><rect x="0.5" y="0.5" width="5" height="5"/></g>
<g transform="translate(484,220) scale(3.7766666666667) rotate(-10)"><rect x="0.5" y="0.5" width="5" height="5"/></g>
<g transform="translate(506,220) scale(3.7766666666667) rotate(-10)"><rect x="0.5" y="0.5" width="5" height="5"/></g>
<g transform="translate(550,220) scale(3.7766666666667) rotate(4)"><rect x="0.5" y="0.5" width="5" height="5"/></g>
<g transform="translate(594,220) scale(3.7766666666667) rotate(-4)"><rect x="0.5" y="0.5" width="5" height="5"/></g>
<g transform="translate(638,220) scale(3.7766666666667) rotate(-7)"><rect x="0.5" y="0.5" width="5" height="5"/></g>
<g transform="translate(660,220) scale(3.7766666666667) rotate(-6)"><rect x="0.5" y="0.5" width="5" height="5"/></g>
<g transform="translate(682,220) scale(3.7766666666667) rotate(-6)"><rect x="0.5" y="0.5" width="5" height="5"/></g>
<g transform="translate(748,220) scale(3.7766666666667) rotate(-8)"><rect x="0.5" y="0.5" width="5" height="5"/></g>
<g transform="translate(770,220) scale(3.7766666666667) rotate(-8)"><rect x="0.5" y="0.5" width="5" height="5"/></g>
<g transform="translate(792,220) scale(3.7766666666667) rotate(-6)"><rect x="0.5" y="0.5" width="5" height="5"/></g>
<g transform="translate(814,220) scale(3.7766666666667) rotate(0)"><rect x="0.5" y="0.5" width="5" height="5"/></g>
<g transform="translate(880,220) scale(3.7766666666667) rotate(-9)"><rect x="0.5" y="0.5" width="5" height="5"/></g>
<g transform="translate(902,220) scale(3.7766666666667) rotate(-2)"><rect x="0.5" y="0.5" width="5" height="5"/></g>
<g transform="translate(924,220) scale(3.7766666666667) rotate(2)"><rect x="0.5" y="0.5" width="5" height="5"/></g>
<g transform="translate(66,242) scale(3.7766666666667) rotate(6)"><rect x="0.5" y="0.5" width="5" height="5"/></g>
<g transform="translate(88,242) scale(3.7766666666667) rotate(-3)"><rect x="0.5" y="0.5" width="5" height="5"/></g>
<g transform="translate(132,242) scale(3.7766666666667) rotate(0)"><rect x="0.5" y="0.5" width="5" height="5"/></g>
<g transform="translate(198,242) scale(3.7766666666667) rotate(-3)"><rect x="0.5" y="0.5" width="5" height="5"/></g>
<g transform="translate(242,242) scale(3.7766666666667) rotate(10)"><rect x="0.5" y="0.5" width="5" height="5"/></g>
<g transform="translate(330,242) scale(3.7766666666667) rotate(3)"><rect x="0.5" y="0.5" width="5" height="5"/></g>
<g transform="translate(352,242) scale(3.7766666666667) rotate(10)"><rect x="0.5" y="0.5" width="5" height="5"/></g>
<g transform="translate(374,242) scale(3.7766666666667) rotate(-6)"><rect x="0.5" y="0.5" width="5" height="5"/></g>
<g transform="translate(418,242) scale(3.7766666666667) rotate(-7)"><rect x="0.5" y="0.5" width="5" height="5"/></g>
<g transform="translate(528,242) scale(3.7766666666667) rotate(-10)"><rect x="0.5" y="0.5" width="5" height="5"/></g>
<g transform="translate(572,242) scale(3.7766666666667) rotate(9)"><rect x="0.5" y="0.5" width="5" height="5"/></g>
<g transform="translate(616,242) scale(3.7766666666667) rotate(3)"><rect x="0.5" y="0.5" width="5" height="5"/></g>
<g transform="translate(660,242) scale(3.7766666666667) rotate(2)"><rect x="0.5" y="0.5" width="5" height="5"/></g>
<g transform="translate(682,242) scale(3.7766666666667) rotate(7)"><rect x="0.5" y="0.5" width="5" height="5"/></g>
<g transform="translate(704,242) scale(3.7766666666667) rotate(1)"><rect x="0.5" y="0.5" width="5" height="5"/></g>
<g transform="translate(726,242) scale(3.7766666666667) rotate(3)"><rect x="0.5" y="0.5" width="5" height="5"/></g>
<g transform="translate(748,242) scale(3.7766666666667) rotate(2)"><rect x="0.5" y="0.5" width="5" height="5"/></g>
<g transform="translate(770,242) scale(3.7766666666667) rotate(10)"><rect x="0.5" y="0.5" width="5" height="5"/></g>
<g transform="translate(792,242) scale(3.7766666666667) rotate(-8)"><rect x="0.5" y="0.5" width="5" height="5"/></g>
<g transform="translate(814,242) scale(3.7766666666667) rotate(-8)"><rect x="0.5" y="0.5" width="5" height="5"/></g>
<g transform="translate(836,242) scale(3.7766666666667) rotate(-2)"><rect x="0.5" y="0.5" width="5" height="5"/></g>
<g transform="translate(880,242) scale(3.7766666666667) rotate(-6)"><rect x="0.5" y="0.5" width="5" height="5"/></g>
<g transform="translate(902,242) scale(3.7766666666667) rotate(-9)"><rect x="0.5" y="0.5" width="5" height="5"/></g>
<g transform="translate(44,264) scale(3.7766666666667) rotate(6)"><rect x="0.5" y="0.5" width="5" height="5"/></g>
<g transform="translate(66,264) scale(3.7766666666667) rotate(-10)"><rect x="0.5" y="0.5" width="5" height="5"/></g>
<g transform="translate(110,264) scale(3.7766666666667) rotate(5)"><rect x="0.5" y="0.5" width="5" height="5"/></g>
<g transform="translate(154,264) scale(3.7766666666667) rotate(-5)"><rect x="0.5" y="0.5" width="5" height="5"/></g>
<g transform="translate(176,264) scale(3.7766666666667) rotate(8)"><rect x="0.5" y="0.5" width="5" height="5"/></g>
<g transform="translate(220,264) scale(3.7766666666667) rotate(0)"><rect x="0.5" y="0.5" width="5" height="5"/></g>
<g transform="translate(286,264) scale(3.7766666666667) rotate(7)"><rect x="0.5" y="0.5" width="5" height="5"/></g>
<g transform="translate(374,264) scale(3.7766666666667) rotate(5)"><rect x="0.5" y="0.5" width="5" height="5"/></g>
<g transform="translate(396,264) scale(3.7766666666667) rotate(7)"><rect x="0.5" y="0.5" width="5" height="5"/></g>
<g transform="translate(418,264) scale(3.7766666666667) rotate(-2)"><rect x="0.5" y="0.5" width="5" height="5"/></g>
<g transform="translate(462,264) scale(3.7766666666667) rotate(-5)"><rect x="0.5" y="0.5" width="5" height="5"/></g>
<g transform="translate(484,264) scale(3.7766666666667) rotate(6)"><rect x="0.5" y="0.5" width="5" height="5"/></g>
<g transform="translate(528,264) scale(3.7766666666667) rotate(-2)"><rect x="0.5" y="0.5" width="5" height="5"/></g>
<g transform="translate(550,264) scale(3.7766666666667) rotate(-6)"><rect x="0.5" y="0.5" width="5" height="5"/></g>
<g transform="translate(572,264) scale(3.7766666666667) rotate(3)"><rect x="0.5" y="0.5" width="5" height="5"/></g>
<g transform="translate(638,264) scale(3.7766666666667) rotate(8)"><rect x="0.5" y="0.5" width="5" height="5"/></g>
<g transform="translate(660,264) scale(3.7766666666667) rotate(-1)"><rect x="0.5" y="0.5" width="5" height="5"/></g>
<g transform="translate(704,264) scale(3.7766666666667) rotate(-5)"><rect x="0.5" y="0.5" width="5" height="5"/></g>
<g transform="translate(748,264) scale(3.7766666666667) rotate(5)"><rect x="0.5" y="0.5" width="5" height="5"/></g>
<g transform="translate(770,264) scale(3.7766666666667) rotate(-2)"><rect x="0.5" y="0.5" width="5" height="5"/></g>
<g transform="translate(902,264) scale(3.7766666666667) rotate(-3)"><rect x="0.5" y="0.5" width="5" height="5"/></g>
<g transform="translate(44,286) scale(3.7766666666667) rotate(-6)"><rect x="0.5" y="0.5" width="5" height="5"/></g>
<g transform="translate(88,286) scale(3.7766666666667) rotate(-5)"><rect x="0.5" y="0.5" width="5" height="5"/></g>
<g transform="translate(110,286) scale(3.7766666666667) rotate(-9)"><rect x="0.5" y="0.5" width="5" height="5"/></g>
<g transform="translate(154,286) scale(3.7766666666667) rotate(10)"><rect x="0.5" y="0.5" width="5" height="5"/></g>
<g transform="translate(242,286) scale(3.7766666666667) rotate(-6)"><rect x="0.5" y="0.5" width="5" height="5"/></g>
<g transform="translate(264,286) scale(3.7766666666667) rotate(9)"><rect x="0.5" y="0.5" width="5" height="5"/></g>
<g transform="translate(286,286) scale(3.7766666666667) rotate(5)"><rect x="0.5" y="0.5" width="5" height="5"/></g>
<g transform="translate(330,286) scale(3.7766666666667) rotate(-3)"><rect x="0.5" y="0.5" width="5" height="5"/></g>
<g transform="translate(352,286) scale(3.7766666666667) rotate(-8)"><rect x="0.5" y="0.5" width="5" height="5"/></g>
<g transform="translate(374,286) scale(3.7766666666667) rotate(5)"><rect x="0.5" y="0.5" width="5" height="5"/></g>
<g transform="translate(396,286) scale(3.7766666666667) rotate(0)"><rect x="0.5" y="0.5" width="5" height="5"/></g>
<g transform="translate(484,286) scale(3.7766666666667) rotate(-4)"><rect x="0.5" y="0.5" width="5" height="5"/></g>
<g transform="translate(506,286) scale(3.7766666666667) rotate(10)"><rect x="0.5" y="0.5" width="5" height="5"/></g>
<g transform="translate(572,286) scale(3.7766666666667) rotate(-2)"><rect x="0.5" y="0.5" width="5" height="5"/></g>
<g transform="translate(726,286) scale(3.7766666666667) rotate(0)"><rect x="0.5" y="0.5" width="5" height="5"/></g>
<g transform="translate(748,286) scale(3.7766666666667) rotate(-10)"><rect x="0.5" y="0.5" width="5" height="5"/></g>
<g transform="translate(836,286) scale(3.7766666666667) rotate(-7)"><rect x="0.5" y="0.5" width="5" height="5"/></g>
<g transform="translate(858,286) scale(3.7766666666667) rotate(-4)"><rect x="0.5" y="0.5" width="5" height="5"/></g>
<g transform="translate(924,286) scale(3.7766666666667) rotate(5)"><rect x="0.5" y="0.5" width="5" height="5"/></g>
<g transform="translate(66,308) scale(3.7766666666667) rotate(10)"><rect x="0.5" y="0.5" width="5" height="5"/></g>
<g transform="translate(110,308) scale(3.7766666666667) rotate(-8)"><rect x="0.5" y="0.5" width="5" height="5"/></g>
<g transform="translate(154,308) scale(3.7766666666667) rotate(-4)"><rect x="0.5" y="0.5" width="5" height="5"/></g>
<g transform="translate(176,308) scale(3.7766666666667) rotate(-4)"><rect x="0.5" y="0.5" width="5" height="5"/></g>
<g transform="translate(220,308) scale(3.7766666666667) rotate(-3)"><rect x="0.5" y="0.5" width="5" height="5"/></g>
<g transform="translate(242,308) scale(3.7766666666667) rotate(3)"><rect x="0.5" y="0.5" width="5" height="5"/></g>
<g transform="translate(264,308) scale(3.7766666666667) rotate(8)"><rect x="0.5" y="0.5" width="5" height="5"/></g>
<g transform="translate(286,308) scale(3.7766666666667) rotate(9)"><rect x="0.5" y="0.5" width="5" height="5"/></g>
<g transform="translate(374,308) scale(3.7766666666667) rotate(3)"><rect x="0.5" y="0.5" width="5" height="5"/></g>
<g transform="translate(418,308) scale(3.7766666666667) rotate(0)"><rect x="0.5" y="0.5" width="5" height="5"/></g>
<g transform="translate(440,308) scale(3.7766666666667) rotate(-5)"><rect x="0.5" y="0.5" width="5" height="5"/></g>
<g transform="translate(506,308) scale(3.7766666666667) rotate(0)"><rect x="0.5" y="0.5" width="5" height="5"/></g>
<g transform="translate(528,308) scale(3.7766666666667) rotate(-7)"><rect x="0.5" y="0.5" width="5" height="5"/></g>
<g transform="translate(594,308) scale(3.7766666666667) rotate(4)"><rect x="0.5" y="0.5" width="5" height="5"/></g>
<g transform="translate(638,308) scale(3.7766666666667) rotate(5)"><rect x="0.5" y="0.5" width="5" height="5"/></g>
<g transform="translate(660,308) scale(3.7766666666667) rotate(1)"><rect x="0.5" y="0.5" width="5" height="5"/></g>
<g transform="translate(682,308) scale(3.7766666666667) rotate(-8)"><rect x="0.5" y="0.5" width="5" height="5"/></g>
<g transform="translate(726,308) scale(3.7766666666667) rotate(4)"><rect x="0.5" y="0.5" width="5" height="5"/></g>
<g transform="translate(770,308) scale(3.7766666666667) rotate(-4)"><rect x="0.5" y="0.5" width="5" height="5"/></g>
<g transform="translate(858,308) scale(3.7766666666667) rotate(2)"><rect x="0.5" y="0.5" width="5" height="5"/></g>
<g transform="translate(880,308) scale(3.7766666666667) rotate(-5)"><rect x="0.5" y="0.5" width="5" height="5"/></g>
<g transform="translate(924,308) scale(3.7766666666667) rotate(4)"><rect x="0.5" y="0.5" width="5" height="5"/></g>
<g transform="translate(132,330) scale(3.7766666666667) rotate(-6)"><rect x="0.5" y="0.5" width="5" height="5"/></g>
<g transform="translate(154,330) scale(3.7766666666667) rotate(-2)"><rect x="0.5" y="0.5" width="5" height="5"/></g>
<g transform="translate(198,330) scale(3.7766666666667) rotate(9)"><rect x="0.5" y="0.5" width="5" height="5"/></g>
<g transform="translate(242,330) scale(3.7766666666667) rotate(-2)"><rect x="0.5" y="0.5" width="5" height="5"/></g>
<g transform="translate(264,330) scale(3.7766666666667) rotate(-4)"><rect x="0.5" y="0.5" width="5" height="5"/></g>
<g transform="translate(286,330) scale(3.7766666666667) rotate(-4)"><rect x="0.5" y="0.5" width="5" height="5"/></g>
<g transform="translate(308,330) scale(3.7766666666667) rotate(6)"><rect x="0.5" y="0.5" width="5" height="5"/></g>
<g transform="translate(484,330) scale(3.7766666666667) rotate(9)"><rect x="0.5" y="0.5" width="5" height="5"/></g>
<g transform="translate(572,330) scale(3.7766666666667) rotate(-4)"><rect x="0.5" y="0.5" width="5" height="5"/></g>
<g transform="translate(594,330) scale(3.7766666666667) rotate(-7)"><rect x="0.5" y="0.5" width="5" height="5"/></g>
<g transform="translate(638,330) scale(3.7766666666667) rotate(-9)"><rect x="0.5" y="0.5" width="5" height="5"/></g>
<g transform="translate(748,330) scale(3.7766666666667) rotate(3)"><rect x="0.5" y="0.5" width="5" height="5"/></g>
<g transform="translate(814,330) scale(3.7766666666667) rotate(10)"><rect x="0.5" y="0.5" width="5" height="5"/></g>
<g transform="translate(836,330) scale(3.7766666666667) rotate(9)"><rect x="0.5" y="0.5" width="5" height="5"/></g>
<g transform="translate(858,330) scale(3.7766666666667) rotate(-7)"><rect x="0.5" y="0.5" width="5" height="5"/></g>
<g transform="translate(902,330) scale(3.7766666666667) rotate(0)"><rect x="0.5" y="0.5" width="5" height="5"/></g>
<g transform="translate(924,330) scale(3.7766666666667) rotate(1)"><rect x="0.5" y="0.5" width="5" height="5"/></g>
<g transform="translate(44,352) scale(3.7766666666667) rotate(-9)"><rect x="0.5" y="0.5" width="5" height="5"/></g>
<g transform="translate(154,352) scale(3.7766666666667) rotate(-7)"><rect x="0.5" y="0.5" width="5" height="5"/></g>
<g transform="translate(176,352) scale(3.7766666666667) rotate(2)"><rect x="0.5" y="0.5" width="5" height="5"/></g>
<g transform="translate(198,352) scale(3.7766666666667) rotate(-8)"><rect x="0.5" y="0.5" width="5" height="5"/></g>
<g transform="translate(220,352) scale(3.7766666666667) rotate(-3)"><rect x="0.5" y="0.5" width="5" height="5"/></g>
<g transform="translate(264,352) scale(3.7766666666667) rotate(-9)"><rect x="0.5" y="0.5" width="5" height="5"/></g>
<g transform="translate(286,352) scale(3.7766666666667) rotate(0)"><rect x="0.5" y="0.5" width="5" height="5"/></g>
<g transform="translate(308,352) scale(3.7766666666667) rotate(-9)"><rect x="0.5" y="0.5" width="5" height="5"/></g>
<g transform="translate(440,352) scale(3.7766666666667) rotate(2)"><rect x="0.5" y="0.5" width="5" height="5"/></g>
<g transform="translate(484,352) scale(3.7766666666667) rotate(-5)"><rect x="0.5" y="0.5" width="5" height="5"/></g>
<g transform="translate(528,352) scale(3.7766666666667) rotate(9)"><rect x="0.5" y="0.5" width="5" height="5"/></g>
<g transform="translate(594,352) scale(3.7766666666667) rotate(-5)"><rect x="0.5" y="0.5" width="5" height="5"/></g>
<g transform="translate(616,352) scale(3.7766666666667) rotate(-7)"><rect x="0.5" y="0.5" width="5" height="5"/></g>
<g transform="translate(638,352) scale(3.7766666666667) rotate(-4)"><rect x="0.5" y="0.5" width="5" height="5"/></g>
<g transform="translate(660,352) scale(3.7766666666667) rotate(2)"><rect x="0.5" y="0.5" width="5" height="5"/></g>
<g transform="translate(726,352) scale(3.7766666666667) rotate(2)"><rect x="0.5" y="0.5" width="5" height="5"/></g>
<g transform="translate(770,352) scale(3.7766666666667) rotate(-2)"><rect x="0.5" y="0.5" width="5" height="5"/></g>
<g transform="translate(858,352) scale(3.7766666666667) rotate(-10)"><rect x="0.5" y="0.5" width="5" height="5"/></g>
<g transform="translate(66,374) scale(3.7766666666667) rotate(4)"><rect x="0.5" y="0.5" width="5" height="5"/></g>
<g transform="translate(88,374) scale(3.7766666666667) rotate(-1)"><rect x="0.5" y="0.5" width="5" height="5"/></g>
<g transform="translate(110,374) scale(3.7766666666667) rotate(-1)"><rect x="0.5" y="0.5" width="5" height="5"/></g>
<g transform="translate(132,374) scale(3.7766666666667) rotate(8)"><rect x="0.5" y="0.5" width="5" height="5"/></g>
<g transform="translate(198,374) scale(3.7766666666667) rotate(0)"><rect x="0.5" y="0.5" width="5" height="5"/></g>
<g transform="translate(220,374) scale(3.7766666666667) rotate(10)"><rect x="0.5" y="0.5" width="5" height="5"/></g>
<g transform="translate(242,374) scale(3.7766666666667) rotate(3)"><rect x="0.5" y="0.5" width="5" height="5"/></g>
<g transform="translate(286,374) scale(3.7766666666667) rotate(2)"><rect x="0.5" y="0.5" width="5" height="5"/></g>
<g transform="translate(308,374) scale(3.7766666666667) rotate(2)"><rect x="0.5" y="0.5" width="5" height="5"/></g>
<g transform="translate(374,374) scale(3.7766666666667) rotate(3)"><rect x="0.5" y="0.5" width="5" height="5"/></g>
<g transform="translate(396,374) scale(3.7766666666667) rotate(-4)"><rect x="0.5" y="0.5" width="5" height="5"/></g>
<g transform="translate(418,374) scale(3.7766666666667) rotate(-4)"><rect x="0.5" y="0.5" width="5" height="5"/></g>
<g transform="translate(462,374) scale(3.7766666666667) rotate(-5)"><rect x="0.5" y="0.5" width="5" height="5"/></g>
<g transform="translate(484,374) scale(3.7766666666667) rotate(-9)"><rect x="0.5" y="0.5" width="5" height="5"/></g>
<g transform="translate(506,374) scale(3.7766666666667) rotate(-10)"><rect x="0.5" y="0.5" width="5" height="5"/></g>
<g transform="translate(550,374) scale(3.7766666666667) rotate(1)"><rect x="0.5" y="0.5" width="5" height="5"/></g>
<g transform="translate(616,374) scale(3.7766666666667) rotate(-5)"><rect x="0.5" y="0.5" width="5" height="5"/></g>
<g transform="translate(638,374) scale(3.7766666666667) rotate(1)"><rect x="0.5" y="0.5" width="5" height="5"/></g>
<g transform="translate(704,374) scale(3.7766666666667) rotate(-2)"><rect x="0.5" y="0.5" width="5" height="5"/></g>
<g transform="translate(726,374) scale(3.7766666666667) rotate(4)"><rect x="0.5" y="0.5" width="5" height="5"/></g>
<g transform="translate(748,374) scale(3.7766666666667) rotate(8)"><rect x="0.5" y="0.5" width="5" height="5"/></g>
<g transform="translate(792,374) scale(3.7766666666667) rotate(1)"><rect x="0.5" y="0.5" width="5" height="5"/></g>
<g transform="translate(814,374) scale(3.7766666666667) rotate(-3)"><rect x="0.5" y="0.5" width="5" height="5"/></g>
<g transform="translate(836,374) scale(3.7766666666667) rotate(0)"><rect x="0.5" y="0.5" width="5" height="5"/></g>
<g transform="translate(858,374) scale(3.7766666666667) rotate(8)"><rect x="0.5" y="0.5" width="5" height="5"/></g>
<g transform="translate(44,396) scale(3.7766666666667) rotate(-7)"><rect x="0.5" y="0.5" width="5" height="5"/></g>
<g transform="translate(154,396) scale(3.7766666666667) rotate(-9)"><rect x="0.5" y="0.5" width="5" height="5"/></g>
<g transform="translate(176,396) scale(3.7766666666667) rotate(3)"><rect x="0.5" y="0.5" width="5" height="5"/></g>
<g transform="translate(242,396) scale(3.7766666666667) rotate(9)"><rect x="0.5" y="0.5" width="5" height="5"/></g>
<g transform="translate(264,396) scale(3.7766666666667) rotate(-3)"><rect x="0.5" y="0.5" width="5" height="5"/></g>
<g transform="translate(308,396) scale(3.7766666666667) rotate(1)"><rect x="0.5" y="0.5" width="5" height="5"/></g>
<g transform="translate(352,396) scale(3.7766666666667) rotate(-5)"><rect x="0.5" y="0.5" width="5" height="5"/></g>
<g transform="translate(418,396) scale(3.7766666666667) rotate(1)"><rect x="0.5" y="0.5" width="5" height="5"/></g>
<g transform="translate(440,396) scale(3.7766666666667) rotate(-9)"><rect x="0.5" y="0.5" width="5" height="5"/></g>
<g transform="translate(484,396) scale(3.7766666666667) rotate(2)"><rect x="0.5" y="0.5" width="5" height="5"/></g>
<g transform="translate(506,396) scale(3.7766666666667) rotate(2)"><rect x="0.5" y="0.5" width="5" height="5"/></g>
<g transform="translate(550,396) scale(3.7766666666667) rotate(5)"><rect x="0.5" y="0.5" width="5" height="5"/></g>
<g transform="translate(594,396) scale(3.7766666666667) rotate(-8)"><rect x="0.5" y="0.5" width="5" height="5"/></g>
<g transform="translate(616,396) scale(3.7766666666667) rotate(3)"><rect x="0.5" y="0.5" width="5" height="5"/></g>
<g transform="translate(638,396) scale(3.7766666666667) rotate(4)"><rect x="0.5" y="0.5" width="5" height="5"/></g>
<g transform="translate(682,396) scale(3.7766666666667) rotate(9)"><rect x="0.5" y="0.5" width="5" height="5"/></g>
<g transform="translate(726,396) scale(3.7766666666667) rotate(-3)"><rect x="0.5" y="0.5" width="5" height="5"/></g>
<g transform="translate(770,396) scale(3.7766666666667) rotate(3)"><rect x="0.5" y="0.5" width="5" height="5"/></g>
<g transform="translate(814,396) scale(3.7766666666667) rotate(5)"><rect x="0.5" y="0.5" width="5" height="5"/></g>
<g transform="translate(880,396) scale(3.7766666666667) rotate(-5)"><rect x="0.5" y="0.5" width="5" height="5"/></g>
<g transform="translate(902,396) scale(3.7766666666667) rotate(4)"><rect x="0.5" y="0.5" width="5" height="5"/></g>
<g transform="translate(924,396) scale(3.7766666666667) rotate(-8)"><rect x="0.5" y="0.5" width="5" height="5"/></g>
<g transform="translate(44,418) scale(3.7766666666667) rotate(-1)"><rect x="0.5" y="0.5" width="5" height="5"/></g>
<g transform="translate(66,418) scale(3.7766666666667) rotate(-3)"><rect x="0.5" y="0.5" width="5" height="5"/></g>
<g transform="translate(110,418) scale(3.7766666666667) rotate(-4)"><rect x="0.5" y="0.5" width="5" height="5"/></g>
<g transform="translate(132,418) scale(3.7766666666667) rotate(3)"><rect x="0.5" y="0.5" width="5" height="5"/></g>
<g transform="translate(154,418) scale(3.7766666666667) rotate(3)"><rect x="0.5" y="0.5" width="5" height="5"/></g>
<g transform="translate(286,418) scale(3.7766666666667) rotate(-1)"><rect x="0.5" y="0.5" width="5" height="5"/></g>
<g transform="translate(352,418) scale(3.7766666666667) rotate(1)"><rect x="0.5" y="0.5" width="5" height="5"/></g>
<g transform="translate(462,418) scale(3.7766666666667) rotate(-4)"><rect x="0.5" y="0.5" width="5" height="5"/></g>
<g transform="translate(484,418) scale(3.7766666666667) rotate(0)"><rect x="0.5" y="0.5" width="5" height="5"/></g>
<g transform="translate(528,418) scale(3.7766666666667) rotate(-5)"><rect x="0.5" y="0.5" width="5" height="5"/></g>
<g transform="translate(550,418) scale(3.7766666666667) rotate(-8)"><rect x="0.5" y="0.5" width="5" height="5"/></g>
<g transform="translate(572,418) scale(3.7766666666667) rotate(-4)"><rect x="0.5" y="0.5" width="5" height="5"/></g>
<g transform="translate(594,418) scale(3.7766666666667) rotate(9)"><rect x="0.5" y="0.5" width="5" height="5"/></g>
<g transform="translate(616,418) scale(3.7766666666667) rotate(-10)"><rect x="0.5" y="0.5" width="5" height="5"/></g>
<g transform="translate(660,418) scale(3.7766666666667) rotate(-5)"><rect x="0.5" y="0.5" width="5" height="5"/></g>
<g transform="translate(682,418) scale(3.7766666666667) rotate(-5)"><rect x="0.5" y="0.5" width="5" height="5"/></g>
<g transform="translate(704,418) scale(3.7766666666667) rotate(-9)"><rect x="0.5" y="0.5" width="5" height="5"/></g>
<g transform="translate(726,418) scale(3.7766666666667) rotate(-6)"><rect x="0.5" y="0.5" width="5" height="5"/></g>
<g transform="translate(748,418) scale(3.7766666666667) rotate(6)"><rect x="0.5" y="0.5" width="5" height="5"/></g>
<g transform="translate(792,418) scale(3.7766666666667) rotate(9)"><rect x="0.5" y="0.5" width="5" height="5"/></g>
<g transform="translate(814,418) scale(3.7766666666667) rotate(-4)"><rect x="0.5" y="0.5" width="5" height="5"/></g>
<g transform="translate(836,418) scale(3.7766666666667) rotate(0)"><rect x="0.5" y="0.5" width="5" height="5"/></g>
<g transform="translate(858,418) scale(3.7766666666667) rotate(-2)"><rect x="0.5" y="0.5" width="5" height="5"/></g>
<g transform="translate(880,418) scale(3.7766666666667) rotate(2)"><rect x="0.5" y="0.5" width="5" height="5"/></g>
<g transform="translate(902,418) scale(3.7766666666667) rotate(7)"><rect x="0.5" y="0.5" width="5" height="5"/></g>
<g transform="translate(924,418) scale(3.7766666666667) rotate(-3)"><rect x="0.5" y="0.5" width="5" height="5"/></g>
<g transform="translate(44,440) scale(3.7766666666667) rotate(3)"><rect x="0.5" y="0.5" width="5" height="5"/></g>
<g transform="translate(110,440) scale(3.7766666666667) rotate(-9)"><rect x="0.5" y="0.5" width="5" height="5"/></g>
<g transform="translate(132,440) scale(3.7766666666667) rotate(9)"><rect x="0.5" y="0.5" width="5" height="5"/></g>
<g transform="translate(154,440) scale(3.7766666666667) rotate(10)"><rect x="0.5" y="0.5" width="5" height="5"/></g>
<g transform="translate(176,440) scale(3.7766666666667) rotate(-2)"><rect x="0.5" y="0.5" width="5" height="5"/></g>
<g transform="translate(198,440) scale(3.7766666666667) rotate(8)"><rect x="0.5" y="0.5" width="5" height="5"/></g>
<g transform="translate(220,440) scale(3.7766666666667) rotate(6)"><rect x="0.5" y="0.5" width="5" height="5"/></g>
<g transform="translate(242,440) scale(3.7766666666667) rotate(0)"><rect x="0.5" y="0.5" width="5" height="5"/></g>
<g transform="translate(286,440) scale(3.7766666666667) rotate(-7)"><rect x="0.5" y="0.5" width="5" height="5"/></g>
<g transform="translate(308,440) scale(3.7766666666667) rotate(4)"><rect x="0.5" y="0.5" width="5" height="5"/></g>
<g transform="translate(330,440) scale(3.7766666666667) rotate(3)"><rect x="0.5" y="0.5" width="5" height="5"/></g>
<g transform="translate(440,440) scale(3.7766666666667) rotate(-9)"><rect x="0.5" y="0.5" width="5" height="5"/></g>
<g transform="translate(462,440) scale(3.7766666666667) rotate(1)"><rect x="0.5" y="0.5" width="5" height="5"/></g>
<g transform="translate(506,440) scale(3.7766666666667) rotate(-5)"><rect x="0.5" y="0.5" width="5" height="5"/></g>
<g transform="translate(528,440) scale(3.7766666666667) rotate(-2)"><rect x="0.5" y="0.5" width="5" height="5"/></g>
<g transform="translate(550,440) scale(3.7766666666667) rotate(9)"><rect x="0.5" y="0.5" width="5" height="5"/></g>
<g transform="translate(572,440) scale(3.7766666666667) rotate(8)"><rect x="0.5" y="0.5" width="5" height="5"/></g>
<g transform="translate(638,440) scale(3.7766666666667) rotate(-10)"><rect x="0.5" y="0.5" width="5" height="5"/></g>
<g transform="translate(660,440) scale(3.7766666666667) rotate(10)"><rect x="0.5" y="0.5" width="5" height="5"/></g>
<g transform="translate(682,440) scale(3.7766666666667) rotate(6)"><rect x="0.5" y="0.5" width="5" height="5"/></g>
<g transform="translate(792,440) scale(3.7766666666667) rotate(-2)"><rect x="0.5" y="0.5" width="5" height="5"/></g>
<g transform="translate(836,440) scale(3.7766666666667) rotate(8)"><rect x="0.5" y="0.5" width="5" height="5"/></g>
<g transform="translate(858,440) scale(3.7766666666667) rotate(9)"><rect x="0.5" y="0.5" width="5" height="5"/></g>
<g transform="translate(880,440) scale(3.7766666666667) rotate(10)"><rect x="0.5" y="0.5" width="5" height="5"/></g>
<g transform="translate(44,462) scale(3.7766666666667) rotate(3)"><rect x="0.5" y="0.5" width="5" height="5"/></g>
<g transform="translate(66,462) scale(3.7766666666667) rotate(-10)"><rect x="0.5" y="0.5" width="5" height="5"/></g>
<g transform="translate(88,462) scale(3.7766666666667) rotate(-6)"><rect x="0.5" y="0.5" width="5" height="5"/></g>
<g transform="translate(110,462) scale(3.7766666666667) rotate(-10)"><rect x="0.5" y="0.5" width="5" height="5"/></g>
<g transform="translate(132,462) scale(3.7766666666667) rotate(10)"><rect x="0.5" y="0.5" width="5" height="5"/></g>
<g transform="translate(198,462) scale(3.7766666666667) rotate(-6)"><rect x="0.5" y="0.5" width="5" height="5"/></g>
<g transform="translate(220,462) scale(3.7766666666667) rotate(7)"><rect x="0.5" y="0.5" width="5" height="5"/></g>
<g transform="translate(242,462) scale(3.7766666666667) rotate(8)"><rect x="0.5" y="0.5" width="5" height="5"/></g>
<g transform="translate(308,462) scale(3.7766666666667) rotate(-7)"><rect x="0.5" y="0.5" width="5" height="5"/></g>
<g transform="translate(352,462) scale(3.7766666666667) rotate(-6)"><rect x="0.5" y="0.5" width="5" height="5"/></g>
<g transform="translate(374,462) scale(3.7766666666667) rotate(9)"><rect x="0.5" y="0.5" width="5" height="5"/></g>
<g transform="translate(396,462) scale(3.7766666666667) rotate(5)"><rect x="0.5" y="0.5" width="5" height="5"/></g>
<g transform="translate(418,462) scale(3.7766666666667) rotate(1)"><rect x="0.5" y="0.5" width="5" height="5"/></g>
<g transform="translate(484,462) scale(3.7766666666667) rotate(1)"><rect x="0.5" y="0.5" width="5" height="5"/></g>
<g transform="translate(506,462) scale(3.7766666666667) rotate(-3)"><rect x="0.5" y="0.5" width="5" height="5"/></g>
<g transform="translate(550,462) scale(3.7766666666667) rotate(-1)"><rect x="0.5" y="0.5" width="5" height="5"/></g>
<g transform="translate(616,462) scale(3.7766666666667) rotate(3)"><rect x="0.5" y="0.5" width="5" height="5"/></g>
<g transform="translate(638,462) scale(3.7766666666667) rotate(8)"><rect x="0.5" y="0.5" width="5" height="5"/></g>
<g transform="translate(682,462) scale(3.7766666666667) rotate(-8)"><rect x="0.5" y="0.5" width="5" height="5"/></g>
<g transform="translate(704,462) scale(3.7766666666667) rotate(8)"><rect x="0.5" y="0.5" width="5" height="5"/></g>
<g transform="translate(726,462) scale(3.7766666666667) rotate(8)"><rect x="0.5" y="0.5" width="5" height="5"/></g>
<g transform="translate(770,462) scale(3.7766666666667) rotate(-10)"><rect x="0.5" y="0.5" width="5" height="5"/></g>
<g transform="translate(836,462) scale(3.7766666666667) rotate(-1)"><rect x="0.5" y="0.5" width="5" height="5"/></g>
<g transform="translate(902,462) scale(3.7766666666667) rotate(-7)"><rect x="0.5" y="0.5" width="5" height="5"/></g>
<g transform="translate(44,484) scale(3.7766666666667) rotate(-6)"><rect x="0.5" y="0.5" width="5" height="5"/></g>
<g transform="translate(88,484) scale(3.7766666666667) rotate(-6)"><rect x="0.5" y="0.5" width="5" height="5"/></g>
<g transform="translate(110,484) scale(3.7766666666667) rotate(-6)"><rect x="0.5" y="0.5" width="5" height="5"/></g>
<g transform="translate(132,484) scale(3.7766666666667) rotate(2)"><rect x="0.5" y="0.5" width="5" height="5"/></g>
<g transform="translate(176,484) scale(3.7766666666667) rotate(4)"><rect x="0.5" y="0.5" width="5" height="5"/></g>
<g transform="translate(308,484) scale(3.7766666666667) rotate(-2)"><rect x="0.5" y="0.5" width="5" height="5"/></g>
<g transform="translate(330,484) scale(3.7766666666667) rotate(1)"><rect x="0.5" y="0.5" width="5" height="5"/></g>
<g transform="translate(352,484) scale(3.7766666666667) rotate(0)"><rect x="0.5" y="0.5" width="5" height="5"/></g>
<g transform="translate(374,484) scale(3.7766666666667) rotate(-8)"><rect x="0.5" y="0.5" width="5" height="5"/></g>
<g transform="translate(418,484) scale(3.7766666666667) rotate(-3)"><rect x="0.5" y="0.5" width="5" height="5"/></g>
<g transform="translate(440,484) scale(3.7766666666667) rotate(10)"><rect x="0.5" y="0.5" width="5" height="5"/></g>
<g transform="translate(484,484) scale(3.7766666666667) rotate(-6)"><rect x="0.5" y="0.5" width="5" height="5"/></g>
<g transform="translate(594,484) scale(3.7766666666667) rotate(3)"><rect x="0.5" y="0.5" width="5" height="5"/></g>
<g transform="translate(836,484) scale(3.7766666666667) rotate(6)"><rect x="0.5" y="0.5" width="5" height="5"/></g>
<g transform="translate(880,484) scale(3.7766666666667) rotate(1)"><rect x="0.5" y="0.5" width="5" height="5"/></g>
<g transform="translate(902,484) scale(3.7766666666667) rotate(-2)"><rect x="0.5" y="0.5" width="5" height="5"/></g>
<g transform="translate(88,506) scale(3.7766666666667) rotate(-9)"><rect x="0.5" y="0.5" width="5" height="5"/></g>
<g transform="translate(154,506) scale(3.7766666666667) rotate(1)"><rect x="0.5" y="0.5" width="5" height="5"/></g>
<g transform="translate(242,506) scale(3.7766666666667) rotate(7)"><rect x="0.5" y="0.5" width="5" height="5"/></g>
<g transform="translate(308,506) scale(3.7766666666667) rotate(8)"><rect x="0.5" y="0.5" width="5" height="5"/></g>
<g transform="translate(352,506) scale(3.7766666666667) rotate(7)"><rect x="0.5" y="0.5" width="5" height="5"/></g>
<g transform="translate(418,506) scale(3.7766666666667) rotate(10)"><rect x="0.5" y="0.5" width="5" height="5"/></g>
<g transform="translate(550,506) scale(3.7766666666667) rotate(-10)"><rect x="0.5" y="0.5" width="5" height="5"/></g>
<g transform="translate(572,506) scale(3.7766666666667) rotate(-8)"><rect x="0.5" y="0.5" width="5" height="5"/></g>
<g transform="translate(660,506) scale(3.7766666666667) rotate(-1)"><rect x="0.5" y="0.5" width="5" height="5"/></g>
<g transform="translate(682,506) scale(3.7766666666667) rotate(9)"><rect x="0.5" y="0.5" width="5" height="5"/></g>
<g transform="translate(704,506) scale(3.7766666666667) rotate(8)"><rect x="0.5" y="0.5" width="5" height="5"/></g>
<g transform="translate(726,506) scale(3.7766666666667) rotate(8)"><rect x="0.5" y="0.5" width="5" height="5"/></g>
<g transform="translate(748,506) scale(3.7766666666667) rotate(-10)"><rect x="0.5" y="0.5" width="5" height="5"/></g>
<g transform="translate(792,506) scale(3.7766666666667) rotate(-1)"><rect x="0.5" y="0.5" width="5" height="5"/></g>
<g transform="translate(814,506) scale(3.7766666666667) rotate(8)"><rect x="0.5" y="0.5" width="5" height="5"/></g>
<g transform="translate(858,506) scale(3.7766666666667) rotate(-5)"><rect x="0.5" y="0.5" width="5" height="5"/></g>
<g transform="translate(880,506) scale(3.7766666666667) rotate(5)"><rect x="0.5" y="0.5" width="5" height="5"/></g>
<g transform="translate(902,506) scale(3.7766666666667) rotate(0)"><rect x="0.5" y="0.5" width="5" height="5"/></g>
<g transform="translate(924,506) scale(3.7766666666667) rotate(8)"><rect x="0.5" y="0.5" width="5" height="5"/></g>
<g transform="translate(66,528) scale(3.7766666666667) rotate(-2)"><rect x="0.5" y="0.5" width="5" height="5"/></g>
<g transform="translate(132,528) scale(3.7766666666667) rotate(-2)"><rect x="0.5" y="0.5" width="5" height="5"/></g>
<g transform="translate(154,528) scale(3.7766666666667) rotate(-1)"><rect x="0.5" y="0.5" width="5" height="5"/></g>
<g transform="translate(176,528) scale(3.7766666666667) rotate(-4)"><rect x="0.5" y="0.5" width="5" height="5"/></g>
<g transform="translate(198,528) scale(3.7766666666667) rotate(7)"><rect x="0.5" y="0.5" width="5" height="5"/></g>
<g transform="translate(242,528) scale(3.7766666666667) rotate(-9)"><rect x="0.5" y="0.5" width="5" height="5"/></g>
<g transform="translate(286,528) scale(3.7766666666667) rotate(4)"><rect x="0.5" y="0.5" width="5" height="5"/></g>
<g transform="translate(352,528) scale(3.7766666666667) rotate(1)"><rect x="0.5" y="0.5" width="5" height="5"/></g>
<g transform="translate(396,528) scale(3.7766666666667) rotate(-7)"><rect x="0.5" y="0.5" width="5" height="5"/></g>
<g transform="translate(418,528) scale(3.7766666666667) rotate(-1)"><rect x="0.5" y="0.5" width="5" height="5"/></g>
<g transform="translate(462,528) scale(3.7766666666667) rotate(-1)"><rect x="0.5" y="0.5" width="5" height="5"/></g>
<g transform="translate(506,528) scale(3.7766666666667) rotate(4)"><rect x="0.5" y="0.5" width="5" height="5"/></g>
<g transform="translate(550,528) scale(3.7766666666667) rotate(6)"><rect x="0.5" y="0.5" width="5" height="5"/></g>
<g transform="translate(572,528) scale(3.7766666666667) rotate(-7)"><rect x="0.5" y="0.5" width="5" height="5"/></g>
<g transform="translate(594,528) scale(3.7766666666667) rotate(-4)"><rect x="0.5" y="0.5" width="5" height="5"/></g>
<g transform="translate(616,528) scale(3.7766666666667) rotate(-4)"><rect x="0.5" y="0.5" width="5" height="5"/></g>
<g transform="translate(638,528) scale(3.7766666666667) rotate(-4)"><rect x="0.5" y="0.5" width="5" height="5"/></g>
<g transform="translate(660,528) scale(3.7766666666667) rotate(-8)"><rect x="0.5" y="0.5" width="5" height="5"/></g>
<g transform="translate(682,528) scale(3.7766666666667) rotate(-1)"><rect x="0.5" y="0.5" width="5" height="5"/></g>
<g transform="translate(880,528) scale(3.7766666666667) rotate(0)"><rect x="0.5" y="0.5" width="5" height="5"/></g>
<g transform="translate(44,550) scale(3.7766666666667) rotate(-4)"><rect x="0.5" y="0.5" width="5" height="5"/></g>
<g transform="translate(66,550) scale(3.7766666666667) rotate(-7)"><rect x="0.5" y="0.5" width="5" height="5"/></g>
<g transform="translate(132,550) scale(3.7766666666667) rotate(-5)"><rect x="0.5" y="0.5" width="5" height="5"/></g>
<g transform="translate(154,550) scale(3.7766666666667) rotate(8)"><rect x="0.5" y="0.5" width="5" height="5"/></g>
<g transform="translate(198,550) scale(3.7766666666667) rotate(-4)"><rect x="0.5" y="0.5" width="5" height="5"/></g>
<g transform="translate(220,550) scale(3.7766666666667) rotate(9)"><rect x="0.5" y="0.5" width="5" height="5"/></g>
<g transform="translate(242,550) scale(3.7766666666667) rotate(7)"><rect x="0.5" y="0.5" width="5" height="5"/></g>
<g transform="translate(308,550) scale(3.7766666666667) rotate(8)"><rect x="0.5" y="0.5" width="5" height="5"/></g>
<g transform="translate(330,550) scale(3.7766666666667) rotate(-2)"><rect x="0.5" y="0.5" width="5" height="5"/></g>
<g transform="translate(374,550) scale(3.7766666666667) rotate(-7)"><rect x="0.5" y="0.5" width="5" height="5"/></g>
<g transform="translate(440,550) scale(3.7766666666667) rotate(7)"><rect x="0.5" y="0.5" width="5" height="5"/></g>
<g transform="translate(506,550) scale(3.7766666666667) rotate(-9)"><rect x="0.5" y="0.5" width="5" height="5"/></g>
<g transform="translate(550,550) scale(3.7766666666667) rotate(10)"><rect x="0.5" y="0.5" width="5" height="5"/></g>
<g transform="translate(572,550) scale(3.7766666666667) rotate(10)"><rect x="0.5" y="0.5" width="5" height="5"/></g>
<g transform="translate(616,550) scale(3.7766666666667) rotate(-2)"><rect x="0.5" y="0.5" width="5" height="5"/></g>
<g transform="translate(638,550) scale(3.7766666666667) rotate(-8)"><rect x="0.5" y="0.5" width="5" height="5"/></g>
<g transform="translate(660,550) scale(3.7766666666667) rotate(-10)"><rect x="0.5" y="0.5" width="5" height="5"/></g>
<g transform="translate(726,550) scale(3.7766666666667) rotate(0)"><rect x="0.5" y="0.5" width="5" height="5"/></g>
<g transform="translate(748,550) scale(3.7766666666667) rotate(-10)"><rect x="0.5" y="0.5" width="5" height="5"/></g>
<g transform="translate(814,550) scale(3.7766666666667) rotate(3)"><rect x="0.5" y="0.5" width="5" height="5"/></g>
<g transform="translate(858,550) scale(3.7766666666667) rotate(-6)"><rect x="0.5" y="0.5" width="5" height="5"/></g>
<g transform="translate(880,550) scale(3.7766666666667) rotate(-4)"><rect x="0.5" y="0.5" width="5" height="5"/></g>
<g transform="translate(66,572) scale(3.7766666666667) rotate(-4)"><rect x="0.5" y="0.5" width="5" height="5"/></g>
<g transform="translate(88,572) scale(3.7766666666667) rotate(-5)"><rect x="0.5" y="0.5" width="5" height="5"/></g>
<g transform="translate(110,572) scale(3.7766666666667) rotate(-7)"><rect x="0.5" y="0.5" width="5" height="5"/></g>
<g transform="translate(154,572) scale(3.7766666666667) rotate(-10)"><rect x="0.5" y="0.5" width="5" height="5"/></g>
<g transform="translate(176,572) scale(3.7766666666667) rotate(0)"><rect x="0.5" y="0.5" width="5" height="5"/></g>
<g transform="translate(220,572) scale(3.7766666666667) rotate(-3)"><rect x="0.5" y="0.5" width="5" height="5"/></g>
<g transform="translate(242,572) scale(3.7766666666667) rotate(0)"><rect x="0.5" y="0.5" width="5" height="5"/></g>
<g transform="translate(264,572) scale(3.7766666666667) rotate(-4)"><rect x="0.5" y="0.5" width="5" height="5"/></g>
<g transform="translate(330,572) scale(3.7766666666667) rotate(-6)"><rect x="0.5" y="0.5" width="5" height="5"/></g>
<g transform="translate(352,572) scale(3.7766666666667) rotate(-6)"><rect x="0.5" y="0.5" width="5" height="5"/></g>
<g transform="translate(462,572) scale(3.7766666666667) rotate(5)"><rect x="0.5" y="0.5" width="5" height="5"/></g>
<g transform="translate(484,572) scale(3.7766666666667) rotate(-3)"><rect x="0.5" y="0.5" width="5" height="5"/></g>
<g transform="translate(528,572) scale(3.7766666666667) rotate(-9)"><rect x="0.5" y="0.5" width="5" height="5"/></g>
<g transform="translate(572,572) scale(3.7766666666667) rotate(-8)"><rect x="0.5" y="0.5" width="5" height="5"/></g>
<g transform="translate(616,572) scale(3.7766666666667) rotate(-7)"><rect x="0.5" y="0.5" width="5" height="5"/></g>
<g transform="translate(638,572) scale(3.7766666666667) rotate(-5)"><rect x="0.5" y="0.5" width="5" height="5"/></g>
<g transform="translate(682,572) scale(3.7766666666667) rotate(-2)"><rect x="0.5" y="0.5" width="5" height="5"/></g>
<g transform="translate(726,572) scale(3.7766666666667) rotate(-2)"><rect x="0.5" y="0.5" width="5" height="5"/></g>
<g transform="translate(814,572) scale(3.7766666666667) rotate(-4)"><rect x="0.5" y="0.5" width="5" height="5"/></g>
<g transform="translate(924,572) scale(3.7766666666667) rotate(8)"><rect x="0.5" y="0.5" width="5" height="5"/></g>
<g transform="translate(66,594) scale(3.7766666666667) rotate(-2)"><rect x="0.5" y="0.5" width="5" height="5"/></g>
<g transform="translate(110,594) scale(3.7766666666667) rotate(2)"><rect x="0.5" y="0.5" width="5" height="5"/></g>
<g transform="translate(198,594) scale(3.7766666666667) rotate(-2)"><rect x="0.5" y="0.5" width="5" height="5"/></g>
<g transform="translate(220,594) scale(3.7766666666667) rotate(2)"><rect x="0.5" y="0.5" width="5" height="5"/></g>
<g transform="translate(242,594) scale(3.7766666666667) rotate(9)"><rect x="0.5" y="0.5" width="5" height="5"/></g>
<g transform="translate(264,594) scale(3.7766666666667) rotate(10)"><rect x="0.5" y="0.5" width="5" height="5"/></g>
<g transform="translate(286,594) scale(3.7766666666667) rotate(-3)"><rect x="0.5" y="0.5" width="5" height="5"/></g>
<g transform="translate(330,594) scale(3.7766666666667) rotate(10)"><rect x="0.5" y="0.5" width="5" height="5"/></g>
<g transform="translate(352,594) scale(3.7766666666667) rotate(8)"><rect x="0.5" y="0.5" width="5" height="5"/></g>
<g transform="translate(374,594) scale(3.7766666666667) rotate(-1)"><rect x="0.5" y="0.5" width="5" height="5"/></g>
<g transform="translate(396,594) scale(3.7766666666667) rotate(2)"><rect x="0.5" y="0.5" width="5" height="5"/></g>
<g transform="translate(484,594) scale(3.7766666666667) rotate(3)"><rect x="0.5" y="0.5" width="5" height="5"/></g>
<g transform="translate(506,594) scale(3.7766666666667) rotate(-2)"><rect x="0.5" y="0.5" width="5" height="5"/></g>
<g transform="translate(572,594) scale(3.7766666666667) rotate(-4)"><rect x="0.5" y="0.5" width="5" height="5"/></g>
<g transform="translate(660,594) scale(3.7766666666667) rotate(0)"><rect x="0.5" y="0.5" width="5" height="5"/></g>
<g transform="translate(704,594) scale(3.7766666666667) rotate(1)"><rect x="0.5" y="0.5" width="5" height="5"/></g>
<g transform="translate(726,594) scale(3.7766666666667) rotate(-4)"><rect x="0.5" y="0.5" width="5" height="5"/></g>
<g transform="translate(792,594) scale(3.7766666666667) rotate(5)"><rect x="0.5" y="0.5" width="5" height="5"/></g>
<g transform="translate(814,594) scale(3.7766666666667) rotate(-1)"><rect x="0.5" y="0.5" width="5" height="5"/></g>
<g transform="translate(836,594) scale(3.7766666666667) rotate(-2)"><rect x="0.5" y="0.5" width="5" height="5"/></g>
<g transform="translate(858,594) scale(3.7766666666667) rotate(-1)"><rect x="0.5" y="0.5" width="5" height="5"/></g>
<g transform="translate(902,594) scale(3.7766666666667) rotate(0)"><rect x="0.5" y="0.5" width="5" height="5"/></g>
<g transform="translate(924,594) scale(3.7766666666667) rotate(9)"><rect x="0.5" y="0.5" width="5" height="5"/></g>
<g transform="translate(44,616) scale(3.7766666666667) rotate(2)"><rect x="0.5" y="0.5" width="5" height="5"/></g>
<g transform="translate(66,616) scale(3.7766666666667) rotate(0)"><rect x="0.5" y="0.5" width="5" height="5"/></g>
<g transform="translate(110,616) scale(3.7766666666667) rotate(-8)"><rect x="0.5" y="0.5" width="5" height="5"/></g>
<g transform="translate(132,616) scale(3.7766666666667) rotate(-2)"><rect x="0.5" y="0.5" width="5" height="5"/></g>
<g transform="translate(154,616) scale(3.7766666666667) rotate(-10)"><rect x="0.5" y="0.5" width="5" height="5"/></g>
<g transform="translate(176,616) scale(3.7766666666667) rotate(8)"><rect x="0.5" y="0.5" width="5" height="5"/></g>
<g transform="translate(198,616) scale(3.7766666666667) rotate(3)"><rect x="0.5" y="0.5" width="5" height="5"/></g>
<g transform="translate(220,616) scale(3.7766666666667) rotate(-6)"><rect x="0.5" y="0.5" width="5" height="5"/></g>
<g transform="translate(286,616) scale(3.7766666666667) rotate(-3)"><rect x="0.5" y="0.5" width="5" height="5"/></g>
<g transform="translate(330,616) scale(3.7766666666667) rotate(-3)"><rect x="0.5" y="0.5" width="5" height="5"/></g>
<g transform="translate(352,616) scale(3.7766666666667) rotate(-2)"><rect x="0.5" y="0.5" width="5" height="5"/></g>
<g transform="translate(374,616) scale(3.7766666666667) rotate(10)"><rect x="0.5" y="0.5" width="5" height="5"/></g>
<g transform="translate(396,616) scale(3.7766666666667) rotate(2)"><rect x="0.5" y="0.5" width="5" height="5"/></g>
<g transform="translate(484,616) scale(3.7766666666667) rotate(2)"><rect x="0.5" y="0.5" width="5" height="5"/></g>
<g transform="translate(528,616) scale(3.7766666666667) rotate(0)"><rect x="0.5" y="0.5" width="5" height="5"/></g>
<g transform="translate(550,616) scale(3.7766666666667) rotate(9)"><rect x="0.5" y="0.5" width="5" height="5"/></g>
<g transform="translate(572,616) scale(3.7766666666667) rotate(0)"><rect x="0.5" y="0.5" width="5" height="5"/></g>
<g transform="translate(616,616) scale(3.7766666666667) rotate(-2)"><rect x="0.5" y="0.5" width="5" height="5"/></g>
<g transform="translate(638,616) scale(3.7766666666667) rotate(-3)"><rect x="0.5" y="0.5" width="5" height="5"/></g>
<g transform="translate(660,616) scale(3.7766666666667) rotate(8)"><rect x="0.5" y="0.5" width="5" height="5"/></g>
<g transform="translate(748,616) scale(3.7766666666667) rotate(8)"><rect x="0.5" y="0.5" width="5" height="5"/></g>
<g transform="translate(792,616) scale(3.7766666666667) rotate(-8)"><rect x="0.5" y="0.5" width="5" height="5"/></g>
<g transform="translate(836,616) scale(3.7766666666667) rotate(1)"><rect x="0.5" y="0.5" width="5" height="5"/></g>
<g transform="translate(902,616) scale(3.7766666666667) rotate(2)"><rect x="0.5" y="0.5" width="5" height="5"/></g>
<g transform="translate(110,638) scale(3.7766666666667) rotate(-2)"><rect x="0.5" y="0.5" width="5" height="5"/></g>
<g transform="translate(132,638) scale(3.7766666666667) rotate(0)"><rect x="0.5" y="0.5" width="5" height="5"/></g>
<g transform="translate(286,638) scale(3.7766666666667) rotate(-10)"><rect x="0.5" y="0.5" width="5" height="5"/></g>
<g transform="translate(308,638) scale(3.7766666666667) rotate(4)"><rect x="0.5" y="0.5" width="5" height="5"/></g>
<g transform="translate(352,638) scale(3.7766666666667) rotate(-8)"><rect x="0.5" y="0.5" width="5" height="5"/></g>
<g transform="translate(374,638) scale(3.7766666666667) rotate(-8)"><rect x="0.5" y="0.5" width="5" height="5"/></g>
<g transform="translate(396,638) scale(3.7766666666667) rotate(6)"><rect x="0.5" y="0.5" width="5" height="5"/></g>
<g transform="translate(418,638) scale(3.7766666666667) rotate(-8)"><rect x="0.5" y="0.5" width="5" height="5"/></g>
<g transform="translate(440,638) scale(3.7766666666667) rotate(-4)"><rect x="0.5" y="0.5" width="5" height="5"/></g>
<g transform="translate(506,638) scale(3.7766666666667) rotate(4)"><rect x="0.5" y="0.5" width="5" height="5"/></g>
<g transform="translate(528,638) scale(3.7766666666667) rotate(10)"><rect x="0.5" y="0.5" width="5" height="5"/></g>
<g transform="translate(550,638) scale(3.7766666666667) rotate(4)"><rect x="0.5" y="0.5" width="5" height="5"/></g>
<g transform="translate(572,638) scale(3.7766666666667) rotate(6)"><rect x="0.5" y="0.5" width="5" height="5"/></g>
<g transform="translate(594,638) scale(3.7766666666667) rotate(-5)"><rect x="0.5" y="0.5" width="5" height="5"/></g>
<g transform="translate(616,638) scale(3.7766666666667) rotate(1)"><rect x="0.5" y="0.5" width="5" height="5"/></g>
<g transform="translate(638,638) scale(3.7766666666667) rotate(-10)"><rect x="0.5" y="0.5" width="5" height="5"/></g>
<g transform="translate(704,638) scale(3.7766666666667) rotate(-2)"><rect x="0.5" y="0.5" width="5" height="5"/></g>
<g transform="translate(726,638) scale(3.7766666666667) rotate(-7)"><rect x="0.5" y="0.5" width="5" height="5"/></g>
<g transform="translate(748,638) scale(3.7766666666667) rotate(4)"><rect x="0.5" y="0.5" width="5" height="5"/></g>
<g transform="translate(770,638) scale(3.7766666666667) rotate(-1)"><rect x="0.5" y="0.5" width="5" height="5"/></g>
<g transform="translate(792,638) scale(3.7766666666667) rotate(-5)"><rect x="0.5" y="0.5" width="5" height="5"/></g>
<g transform="translate(836,638) scale(3.7766666666667) rotate(7)"><rect x="0.5" y="0.5" width="5" height="5"/></g>
<g transform="translate(858,638) scale(3.7766666666667) rotate(-5)"><rect x="0.5" y="0.5" width="5" height="5"/></g>
<g transform="translate(902,638) scale(3.7766666666667) rotate(2)"><rect x="0.5" y="0.5" width="5" height="5"/></g>
<g transform="translate(924,638) scale(3.7766666666667) rotate(-8)"><rect x="0.5" y="0.5" width="5" height="5"/></g>
<g transform="translate(154,660) scale(3.7766666666667) rotate(-6)"><rect x="0.5" y="0.5" width="5" height="5"/></g>
<g transform="translate(176,660) scale(3.7766666666667) rotate(0)"><rect x="0.5" y="0.5" width="5" height="5"/></g>
<g transform="translate(198,660) scale(3.7766666666667) rotate(7)"><rect x="0.5" y="0.5" width="5" height="5"/></g>
<g transform="translate(220,660) scale(3.7766666666667) rotate(-3)"><rect x="0.5" y="0.5" width="5" height="5"/></g>
<g transform="translate(242,660) scale(3.7766666666667) rotate(7)"><rect x="0.5" y="0.5" width="5" height="5"/></g>
<g transform="translate(264,660) scale(3.7766666666667) rotate(-5)"><rect x="0.5" y="0.5" width="5" height="5"/></g>
<g transform="translate(286,660) scale(3.7766666666667) rotate(-1)"><rect x="0.5" y="0.5" width="5" height="5"/></g>
<g transform="translate(352,660) scale(3.7766666666667) rotate(7)"><rect x="0.5" y="0.5" width="5" height="5"/></g>
<g transform="translate(374,660) scale(3.7766666666667) rotate(6)"><rect x="0.5" y="0.5" width="5" height="5"/></g>
<g transform="translate(418,660) scale(3.7766666666667) rotate(9)"><rect x="0.5" y="0.5" width="5" height="5"/></g>
<g transform="translate(440,660) scale(3.7766666666667) rotate(-2)"><rect x="0.5" y="0.5" width="5" height="5"/></g>
<g transform="translate(484,660) scale(3.7766666666667) rotate(6)"><rect x="0.5" y="0.5" width="5" height="5"/></g>
<g transform="translate(506,660) scale(3.7766666666667) rotate(10)"><rect x="0.5" y="0.5" width="5" height="5"/></g>
<g transform="translate(528,660) scale(3.7766666666667) rotate(-7)"><rect x="0.5" y="0.5" width="5" height="5"/></g>
<g transform="translate(550,660) scale(3.7766666666667) rotate(2)"><rect x="0.5" y="0.5" width="5" height="5"/></g>
<g transform="translate(572,660) scale(3.7766666666667) rotate(5)"><rect x="0.5" y="0.5" width="5" height="5"/></g>
<g transform="translate(594,660) scale(3.7766666666667) rotate(7)"><rect x="0.5" y="0.5" width="5" height="5"/></g>
<g transform="translate(616,660) scale(3.7766666666667) rotate(-7)"><rect x="0.5" y="0.5" width="5" height="5"/></g>
<g transform="translate(682,660) scale(3.7766666666667) rotate(-4)"><rect x="0.5" y="0.5" width="5" height="5"/></g>
<g transform="translate(726,660) scale(3.7766666666667) rotate(3)"><rect x="0.5" y="0.5" width="5" height="5"/></g>
<g transform="translate(748,660) scale(3.7766666666667) rotate(-5)"><rect x="0.5" y="0.5" width="5" height="5"/></g>
<g transform="translate(792,660) scale(3.7766666666667) rotate(-6)"><rect x="0.5" y="0.5" width="5" height="5"/></g>
<g transform="translate(858,660) scale(3.7766666666667) rotate(5)"><rect x="0.5" y="0.5" width="5" height="5"/></g>
<g transform="translate(880,660) scale(3.7766666666667) rotate(6)"><rect x="0.5" y="0.5" width="5" height="5"/></g>
<g transform="translate(924,660) scale(3.7766666666667) rotate(-5)"><rect x="0.5" y="0.5" width="5" height="5"/></g>
<g transform="translate(44,682) scale(3.7766666666667) rotate(0)"><rect x="0.5" y="0.5" width="5" height="5"/></g>
<g transform="translate(66,682) scale(3.7766666666667) rotate(-8)"><rect x="0.5" y="0.5" width="5" height="5"/></g>
<g transform="translate(110,682) scale(3.7766666666667) rotate(5)"><rect x="0.5" y="0.5" width="5" height="5"/></g>
<g transform="translate(220,682) scale(3.7766666666667) rotate(7)"><rect x="0.5" y="0.5" width="5" height="5"/></g>
<g transform="translate(242,682) scale(3.7766666666667) rotate(10)"><rect x="0.5" y="0.5" width="5" height="5"/></g>
<g transform="translate(308,682) scale(3.7766666666667) rotate(5)"><rect x="0.5" y="0.5" width="5" height="5"/></g>
<g transform="translate(330,682) scale(3.7766666666667) rotate(10)"><rect x="0.5" y="0.5" width="5" height="5"/></g>
<g transform="translate(396,682) scale(3.7766666666667) rotate(2)"><rect x="0.5" y="0.5" width="5" height="5"/></g>
<g transform="translate(462,682) scale(3.7766666666667) rotate(-9)"><rect x="0.5" y="0.5" width="5" height="5"/></g>
<g transform="translate(484,682) scale(3.7766666666667) rotate(9)"><rect x="0.5" y="0.5" width="5" height="5"/></g>
<g transform="translate(506,682) scale(3.7766666666667) rotate(-7)"><rect x="0.5" y="0.5" width="5" height="5"/></g>
<g transform="translate(572,682) scale(3.7766666666667) rotate(-8)"><rect x="0.5" y="0.5" width="5" height="5"/></g>
<g transform="translate(594,682) scale(3.7766666666667) rotate(0)"><rect x="0.5" y="0.5" width="5" height="5"/></g>
<g transform="translate(638,682) scale(3.7766666666667) rotate(-3)"><rect x="0.5" y="0.5" width="5" height="5"/></g>
<g transform="translate(660,682) scale(3.7766666666667) rotate(3)"><rect x="0.5" y="0.5" width="5" height="5"/></g>
<g transform="translate(704,682) scale(3.7766666666667) rotate(2)"><rect x="0.5" y="0.5" width="5" height="5"/></g>
<g transform="translate(770,682) scale(3.7766666666667) rotate(-3)"><rect x="0.5" y="0.5" width="5" height="5"/></g>
<g transform="translate(814,682) scale(3.7766666666667) rotate(-5)"><rect x="0.5" y="0.5" width="5" height="5"/></g>
<g transform="translate(836,682) scale(3.7766666666667) rotate(-10)"><rect x="0.5" y="0.5" width="5" height="5"/></g>
<g transform="translate(858,682) scale(3.7766666666667) rotate(5)"><rect x="0.5" y="0.5" width="5" height="5"/></g>
<g transform="translate(902,682) scale(3.7766666666667) rotate(-7)"><rect x="0.5" y="0.5" width="5" height="5"/></g>
<g transform="translate(924,682) scale(3.7766666666667) rotate(5)"><rect x="0.5" y="0.5" width="5" height="5"/></g>
<g transform="translate(44,704) scale(3.7766666666667) rotate(7)"><rect x="0.5" y="0.5" width="5" height="5"/></g>
<g transform="translate(88,704) scale(3.7766666666667) rotate(4)"><rect x="0.5" y="0.5" width="5" height="5"/></g>
<g transform="translate(110,704) scale(3.7766666666667) rotate(8)"><rect x="0.5" y="0.5" width="5" height="5"/></g>
<g transform="translate(154,704) scale(3.7766666666667) rotate(8)"><rect x="0.5" y="0.5" width="5" height="5"/></g>
<g transform="translate(176,704) scale(3.7766666666667) rotate(-6)"><rect x="0.5" y="0.5" width="5" height="5"/></g>
<g transform="translate(286,704) scale(3.7766666666667) rotate(-2)"><rect x="0.5" y="0.5" width="5" height="5"/></g>
<g transform="translate(308,704) scale(3.7766666666667) rotate(-9)"><rect x="0.5" y="0.5" width="5" height="5"/></g>
<g transform="translate(330,704) scale(3.7766666666667) rotate(-2)"><rect x="0.5" y="0.5" width="5" height="5"/></g>
<g transform="translate(418,704) scale(3.7766666666667) rotate(3)"><rect x="0.5" y="0.5" width="5" height="5"/></g>
<g transform="translate(440,704) scale(3.7766666666667) rotate(-7)"><rect x="0.5" y="0.5" width="5" height="5"/></g>
<g transform="translate(484,704) scale(3.7766666666667) rotate(-9)"><rect x="0.5" y="0.5" width="5" height="5"/></g>
<g transform="translate(528,704) scale(3.7766666666667) rotate(-7)"><rect x="0.5" y="0.5" width="5" height="5"/></g>
<g transform="translate(550,704) scale(3.7766666666667) rotate(-8)"><rect x="0.5" y="0.5" width="5" height="5"/></g>
<g transform="translate(616,704) scale(3.7766666666667) rotate(9)"><rect x="0.5" y="0.5" width="5" height="5"/></g>
<g transform="translate(704,704) scale(3.7766666666667) rotate(-6)"><rect x="0.5" y="0.5" width="5" height="5"/></g>
<g transform="translate(748,704) scale(3.7766666666667) rotate(3)"><rect x="0.5" y="0.5" width="5" height="5"/></g>
<g transform="translate(770,704) scale(3.7766666666667) rotate(0)"><rect x="0.5" y="0.5" width="5" height="5"/></g>
<g transform="translate(792,704) scale(3.7766666666667) rotate(10)"><rect x="0.5" y="0.5" width="5" height="5"/></g>
<g transform="translate(836,704) scale(3.7766666666667) rotate(-1)"><rect x="0.5" y="0.5" width="5" height="5"/></g>
<g transform="translate(858,704) scale(3.7766666666667) rotate(-2)"><rect x="0.5" y="0.5" width="5" height="5"/></g>
<g transform="translate(44,726) scale(3.7766666666667) rotate(7)"><rect x="0.5" y="0.5" width="5" height="5"/></g>
<g transform="translate(88,726) scale(3.7766666666667) rotate(9)"><rect x="0.5" y="0.5" width="5" height="5"/></g>
<g transform="translate(154,726) scale(3.7766666666667) rotate(6)"><rect x="0.5" y="0.5" width="5" height="5"/></g>
<g transform="translate(220,726) scale(3.7766666666667) rotate(10)"><rect x="0.5" y="0.5" width="5" height="5"/></g>
<g transform="translate(242,726) scale(3.7766666666667) rotate(-7)"><rect x="0.5" y="0.5" width="5" height="5"/></g>
<g transform="translate(264,726) scale(3.7766666666667) rotate(-7)"><rect x="0.5" y="0.5" width="5" height="5"/></g>
<g transform="translate(308,726) scale(3.7766666666667) rotate(-3)"><rect x="0.5" y="0.5" width="5" height="5"/></g>
<g transform="translate(352,726) scale(3.7766666666667) rotate(1)"><rect x="0.5" y="0.5" width="5" height="5"/></g>
<g transform="translate(374,726) scale(3.7766666666667) rotate(-2)"><rect x="0.5" y="0.5" width="5" height="5"/></g>
<g transform="translate(462,726) scale(3.7766666666667) rotate(-10)"><rect x="0.5" y="0.5" width="5" height="5"/></g>
<g transform="translate(506,726) scale(3.7766666666667) rotate(-9)"><rect x="0.5" y="0.5" width="5" height="5"/></g>
<g transform="translate(528,726) scale(3.7766666666667) rotate(3)"><rect x="0.5" y="0.5" width="5" height="5"/></g>
<g transform="translate(550,726) scale(3.7766666666667) rotate(7)"><rect x="0.5" y="0.5" width="5" height="5"/></g>
<g transform="translate(660,726) scale(3.7766666666667) rotate(1)"><rect x="0.5" y="0.5" width="5" height="5"/></g>
<g transform="translate(770,726) scale(3.7766666666667) rotate(3)"><rect x="0.5" y="0.5" width="5" height="5"/></g>
<g transform="translate(792,726) scale(3.7766666666667) rotate(-7)"><rect x="0.5" y="0.5" width="5" height="5"/></g>
<g transform="translate(814,726) scale(3.7766666666667) rotate(8)"><rect x="0.5" y="0.5" width="5" height="5"/></g>
<g transform="translate(836,726) scale(3.7766666666667) rotate(8)"><rect x="0.5" y="0.5" width="5" height="5"/></g>
<g transform="translate(858,726) scale(3.7766666666667) rotate(-9)"><rect x="0.5" y="0.5" width="5" height="5"/></g>
<g transform="translate(902,726) scale(3.7766666666667) rotate(-4)"><rect x="0.5" y="0.5" width="5" height="5"/></g>
<g transform="translate(924,726) scale(3.7766666666667) rotate(8)"><rect x="0.5" y="0.5" width="5" height="5"/></g>
<g transform="translate(44,748) scale(3.7766666666667) rotate(-8)"><rect x="0.5" y="0.5" width="5" height="5"/></g>
<g transform="translate(110,748) scale(3.7766666666667) rotate(-8)"><rect x="0.5" y="0.5" width="5" height="5"/></g>
<g transform="translate(154,748) scale(3.7766666666667) rotate(-4)"><rect x="0.5" y="0.5" width="5" height="5"/></g>
<g transform="translate(176,748) scale(3.7766666666667) rotate(-10)"><rect x="0.5" y="0.5" width="5" height="5"/></g>
<g transform="translate(220,748) scale(3.7766666666667) rotate(-10)"><rect x="0.5" y="0.5" width="5" height="5"/></g>
<g transform="translate(242,748) scale(3.7766666666667) rotate(8)"><rect x="0.5" y="0.5" width="5" height="5"/></g>
<g transform="translate(264,748) scale(3.7766666666667) rotate(1)"><rect x="0.5" y="0.5" width="5" height="5"/></g>
<g transform="translate(286,748) scale(3.7766666666667) rotate(-4)"><rect x="0.5" y="0.5" width="5" height="5"/></g>
<g transform="translate(308,748) scale(3.7766666666667) rotate(4)"><rect x="0.5" y="0.5" width="5" height="5"/></g>
<g transform="translate(484,748) scale(3.7766666666667) rotate(-9)"><rect x="0.5" y="0.5" width="5" height="5"/></g>
<g transform="translate(616,748) scale(3.7766666666667) rotate(4)"><rect x="0.5" y="0.5" width="5" height="5"/></g>
<g transform="translate(682,748) scale(3.7766666666667) rotate(3)"><rect x="0.5" y="0.5" width="5" height="5"/></g>
<g transform="translate(748,748) scale(3.7766666666667) rotate(2)"><rect x="0.5" y="0.5" width="5" height="5"/></g>
<g transform="translate(770,748) scale(3.7766666666667) rotate(2)"><rect x="0.5" y="0.5" width="5" height="5"/></g>
<g transform="translate(792,748) scale(3.7766666666667) rotate(1)"><rect x="0.5" y="0.5" width="5" height="5"/></g>
<g transform="translate(814,748) scale(3.7766666666667) rotate(3)"><rect x="0.5" y="0.5" width="5" height="5"/></g>
<g transform="translate(836,748) scale(3.7766666666667) rotate(7)"><rect x="0.5" y="0.5" width="5" height="5"/></g>
<g transform="translate(880,748) scale(3.7766666666667) rotate(-8)"><rect x="0.5" y="0.5" width="5" height="5"/></g>
<g transform="translate(924,748) scale(3.7766666666667) rotate(4)"><rect x="0.5" y="0.5" width="5" height="5"/></g>
<g transform="translate(220,770) scale(3.7766666666667) rotate(8)"><rect x="0.5" y="0.5" width="5" height="5"/></g>
<g transform="translate(264,770) scale(3.7766666666667) rotate(-6)"><rect x="0.5" y="0.5" width="5" height="5"/></g>
<g transform="translate(330,770) scale(3.7766666666667) rotate(-5)"><rect x="0.5" y="0.5" width="5" height="5"/></g>
<g transform="translate(352,770) scale(3.7766666666667) rotate(-1)"><rect x="0.5" y="0.5" width="5" height="5"/></g>
<g transform="translate(396,770) scale(3.7766666666667) rotate(3)"><rect x="0.5" y="0.5" width="5" height="5"/></g>
<g transform="translate(418,770) scale(3.7766666666667) rotate(7)"><rect x="0.5" y="0.5" width="5" height="5"/></g>
<g transform="translate(462,770) scale(3.7766666666667) rotate(8)"><rect x="0.5" y="0.5" width="5" height="5"/></g>
<g transform="translate(528,770) scale(3.7766666666667) rotate(-4)"><rect x="0.5" y="0.5" width="5" height="5"/></g>
<g transform="translate(572,770) scale(3.7766666666667) rotate(5)"><rect x="0.5" y="0.5" width="5" height="5"/></g>
<g transform="translate(616,770) scale(3.7766666666667) rotate(-5)"><rect x="0.5" y="0.5" width="5" height="5"/></g>
<g transform="translate(660,770) scale(3.7766666666667) rotate(-7)"><rect x="0.5" y="0.5" width="5" height="5"/></g>
<g transform="translate(726,770) scale(3.7766666666667) rotate(3)"><rect x="0.5" y="0.5" width="5" height="5"/></g>
<g transform="translate(748,770) scale(3.7766666666667) rotate(9)"><rect x="0.5" y="0.5" width="5" height="5"/></g>
<g transform="translate(836,770) scale(3.7766666666667) rotate(6)"><rect x="0.5" y="0.5" width="5" height="5"/></g>
<g transform="translate(858,770) scale(3.7766666666667) rotate(8)"><rect x="0.5" y="0.5" width="5" height="5"/></g>
<g transform="translate(880,770) scale(3.7766666666667) rotate(-8)"><rect x="0.5" y="0.5" width="5" height="5"/></g>
<g transform="translate(924,770) scale(3.7766666666667) rotate(8)"><rect x="0.5" y="0.5" width="5" height="5"/></g>
<g transform="translate(242,792) scale(3.7766666666667) rotate(9)"><rect x="0.5" y="0.5" width="5" height="5"/></g>
<g transform="translate(264,792) scale(3.7766666666667) rotate(-7)"><rect x="0.5" y="0.5" width="5" height="5"/></g>
<g transform="translate(286,792) scale(3.7766666666667) rotate(7)"><rect x="0.5" y="0.5" width="5" height="5"/></g>
<g transform="translate(374,792) scale(3.7766666666667) rotate(7)"><rect x="0.5" y="0.5" width="5" height="5"/></g>
<g transform="translate(418,792) scale(3.7766666666667) rotate(-5)"><rect x="0.5" y="0.5" width="5" height="5"/></g>
<g transform="translate(440,792) scale(3.7766666666667) rotate(7)"><rect x="0.5" y="0.5" width="5" height="5"/></g>
<g transform="translate(462,792) scale(3.7766666666667) rotate(7)"><rect x="0.5" y="0.5" width="5" height="5"/></g>
<g transform="translate(484,792) scale(3.7766666666667) rotate(6)"><rect x="0.5" y="0.5" width="5" height="5"/></g>
<g transform="translate(638,792) scale(3.7766666666667) rotate(-1)"><rect x="0.5" y="0.5" width="5" height="5"/></g>
<g transform="translate(704,792) scale(3.7766666666667) rotate(3)"><rect x="0.5" y="0.5" width="5" height="5"/></g>
<g transform="translate(726,792) scale(3.7766666666667) rotate(1)"><rect x="0.5" y="0.5" width="5" height="5"/></g>
<g transform="translate(748,792) scale(3.7766666666667) rotate(-4)"><rect x="0.5" y="0.5" width="5" height="5"/></g>
<g transform="translate(792,792) scale(3.7766666666667) rotate(4)"><rect x="0.5" y="0.5" width="5" height="5"/></g>
<g transform="translate(836,792) scale(3.7766666666667) rotate(-10)"><rect x="0.5" y="0.5" width="5" height="5"/></g>
<g transform="translate(858,792) scale(3.7766666666667) rotate(7)"><rect x="0.5" y="0.5" width="5" height="5"/></g>
<g transform="translate(880,792) scale(3.7766666666667) rotate(8)"><rect x="0.5" y="0.5" width="5" height="5"/></g>
<g transform="translate(242,814) scale(3.7766666666667) rotate(0)"><rect x="0.5" y="0.5" width="5" height="5"/></g>
<g transform="translate(286,814) scale(3.7766666666667) rotate(-10)"><rect x="0.5" y="0.5" width="5" height="5"/></g>
<g transform="translate(374,814) scale(3.7766666666667) rotate(-7)"><rect x="0.5" y="0.5" width="5" height="5"/></g>
<g transform="translate(396,814) scale(3.7766666666667) rotate(8)"><rect x="0.5" y="0.5" width="5" height="5"/></g>
<g transform="translate(462,814) scale(3.7766666666667) rotate(6)"><rect x="0.5" y="0.5" width="5" height="5"/></g>
<g transform="translate(550,814) scale(3.7766666666667) rotate(-10)"><rect x="0.5" y="0.5" width="5" height="5"/></g>
<g transform="translate(572,814) scale(3.7766666666667) rotate(7)"><rect x="0.5" y="0.5" width="5" height="5"/></g>
<g transform="translate(594,814) scale(3.7766666666667) rotate(0)"><rect x="0.5" y="0.5" width="5" height="5"/></g>
<g transform="translate(638,814) scale(3.7766666666667) rotate(9)"><rect x="0.5" y="0.5" width="5" height="5"/></g>
<g transform="translate(660,814) scale(3.7766666666667) rotate(-4)"><rect x="0.5" y="0.5" width="5" height="5"/></g>
<g transform="translate(726,814) scale(3.7766666666667) rotate(-6)"><rect x="0.5" y="0.5" width="5" height="5"/></g>
<g transform="translate(748,814) scale(3.7766666666667) rotate(4)"><rect x="0.5" y="0.5" width="5" height="5"/></g>
<g transform="translate(836,814) scale(3.7766666666667) rotate(-6)"><rect x="0.5" y="0.5" width="5" height="5"/></g>
<g transform="translate(858,814) scale(3.7766666666667) rotate(-9)"><rect x="0.5" y="0.5" width="5" height="5"/></g>
<g transform="translate(924,814) scale(3.7766666666667) rotate(4)"><rect x="0.5" y="0.5" width="5" height="5"/></g>
<g transform="translate(220,836) scale(3.7766666666667) rotate(-7)"><rect x="0.5" y="0.5" width="5" height="5"/></g>
<g transform="translate(242,836) scale(3.7766666666667) rotate(-3)"><rect x="0.5" y="0.5" width="5" height="5"/></g>
<g transform="translate(264,836) scale(3.7766666666667) rotate(-4)"><rect x="0.5" y="0.5" width="5" height="5"/></g>
<g transform="translate(286,836) scale(3.7766666666667) rotate(-6)"><rect x="0.5" y="0.5" width="5" height="5"/></g>
<g transform="translate(330,836) scale(3.7766666666667) rotate(-9)"><rect x="0.5" y="0.5" width="5" height="5"/></g>
<g transform="translate(440,836) scale(3.7766666666667) rotate(8)"><rect x="0.5" y="0.5" width="5" height="5"/></g>
<g transform="translate(462,836) scale(3.7766666666667) rotate(-7)"><rect x="0.5" y="0.5" width="5" height="5"/></g>
<g transform="translate(528,836) scale(3.7766666666667) rotate(-10)"><rect x="0.5" y="0.5" width="5" height="5"/></g>
<g transform="translate(594,836) scale(3.7766666666667) rotate(-4)"><rect x="0.5" y="0.5" width="5" height="5"/></g>
<g transform="translate(638,836) scale(3.7766666666667) rotate(-10)"><rect x="0.5" y="0.5" width="5" height="5"/></g>
<g transform="translate(660,836) scale(3.7766666666667) rotate(-1)"><rect x="0.5" y="0.5" width="5" height="5"/></g>
<g transform="translate(704,836) scale(3.7766666666667) rotate(-9)"><rect x="0.5" y="0.5" width="5" height="5"/></g>
<g transform="translate(748,836) scale(3.7766666666667) rotate(10)"><rect x="0.5" y="0.5" width="5" height="5"/></g>
<g transform="translate(770,836) scale(3.7766666666667) rotate(3)"><rect x="0.5" y="0.5" width="5" height="5"/></g>
<g transform="translate(792,836) scale(3.7766666666667) rotate(-8)"><rect x="0.5" y="0.5" width="5" height="5"/></g>
<g transform="translate(814,836) scale(3.7766666666667) rotate(0)"><rect x="0.5" y="0.5" width="5" height="5"/></g>
<g transform="translate(836,836) scale(3.7766666666667) rotate(8)"><rect x="0.5" y="0.5" width="5" height="5"/></g>
<g transform="translate(858,836) scale(3.7766666666667) rotate(0)"><rect x="0.5" y="0.5" width="5" height="5"/></g>
<g transform="translate(902,836) scale(3.7766666666667) rotate(8)"><rect x="0.5" y="0.5" width="5" height="5"/></g>
<g transform="translate(220,858) scale(3.7766666666667) rotate(-2)"><rect x="0.5" y="0.5" width="5" height="5"/></g>
<g transform="translate(308,858) scale(3.7766666666667) rotate(9)"><rect x="0.5" y="0.5" width="5" height="5"/></g>
<g transform="translate(396,858) scale(3.7766666666667) rotate(9)"><rect x="0.5" y="0.5" width="5" height="5"/></g>
<g transform="translate(418,858) scale(3.7766666666667) rotate(5)"><rect x="0.5" y="0.5" width="5" height="5"/></g>
<g transform="translate(462,858) scale(3.7766666666667) rotate(-1)"><rect x="0.5" y="0.5" width="5" height="5"/></g>
<g transform="translate(484,858) scale(3.7766666666667) rotate(-5)"><rect x="0.5" y="0.5" width="5" height="5"/></g>
<g transform="translate(506,858) scale(3.7766666666667) rotate(-7)"><rect x="0.5" y="0.5" width="5" height="5"/></g>
<g transform="translate(528,858) scale(3.7766666666667) rotate(-10)"><rect x="0.5" y="0.5" width="5" height="5"/></g>
<g transform="translate(594,858) scale(3.7766666666667) rotate(-8)"><rect x="0.5" y="0.5" width="5" height="5"/></g>
<g transform="translate(660,858) scale(3.7766666666667) rotate(-1)"><rect x="0.5" y="0.5" width="5" height="5"/></g>
<g transform="translate(682,858) scale(3.7766666666667) rotate(-4)"><rect x="0.5" y="0.5" width="5" height="5"/></g>
<g transform="translate(748,858) scale(3.7766666666667) rotate(-10)"><rect x="0.5" y="0.5" width="5" height="5"/></g>
<g transform="translate(770,858) scale(3.7766666666667) rotate(-3)"><rect x="0.5" y="0.5" width="5" height="5"/></g>
<g transform="translate(814,858) scale(3.7766666666667) rotate(6)"><rect x="0.5" y="0.5" width="5" height="5"/></g>
<g transform="translate(902,858) scale(3.7766666666667) rotate(-9)"><rect x="0.5" y="0.5" width="5" height="5"/></g>
<g transform="translate(924,858) scale(3.7766666666667) rotate(4)"><rect x="0.5" y="0.5" width="5" height="5"/></g>
<g transform="translate(220,880) scale(3.7766666666667) rotate(6)"><rect x="0.5" y="0.5" width="5" height="5"/></g>
<g transform="translate(286,880) scale(3.7766666666667) rotate(7)"><rect x="0.5" y="0.5" width="5" height="5"/></g>
<g transform="translate(308,880) scale(3.7766666666667) rotate(3)"><rect x="0.5" y="0.5" width="5" height="5"/></g>
<g transform="translate(352,880) scale(3.7766666666667) rotate(-9)"><rect x="0.5" y="0.5" width="5" height="5"/></g>
<g transform="translate(374,880) scale(3.7766666666667) rotate(8)"><rect x="0.5" y="0.5" width="5" height="5"/></g>
<g transform="translate(396,880) scale(3.7766666666667) rotate(-1)"><rect x="0.5" y="0.5" width="5" height="5"/></g>
<g transform="translate(418,880) scale(3.7766666666667) rotate(-9)"><rect x="0.5" y="0.5" width="5" height="5"/></g>
<g transform="translate(462,880) scale(3.7766666666667) rotate(-5)"><rect x="0.5" y="0.5" width="5" height="5"/></g>
<g transform="translate(506,880) scale(3.7766666666667) rotate(3)"><rect x="0.5" y="0.5" width="5" height="5"/></g>
<g transform="translate(528,880) scale(3.7766666666667) rotate(3)"><rect x="0.5" y="0.5" width="5" height="5"/></g>
<g transform="translate(550,880) scale(3.7766666666667) rotate(-7)"><rect x="0.5" y="0.5" width="5" height="5"/></g>
<g transform="translate(572,880) scale(3.7766666666667) rotate(6)"><rect x="0.5" y="0.5" width="5" height="5"/></g>
<g transform="translate(594,880) scale(3.7766666666667) rotate(1)"><rect x="0.5" y="0.5" width="5" height="5"/></g>
<g transform="translate(638,880) scale(3.7766666666667) rotate(-1)"><rect x="0.5" y="0.5" width="5" height="5"/></g>
<g transform="translate(682,880) scale(3.7766666666667) rotate(4)"><rect x="0.5" y="0.5" width="5" height="5"/></g>
<g transform="translate(748,880) scale(3.7766666666667) rotate(5)"><rect x="0.5" y="0.5" width="5" height="5"/></g>
<g transform="translate(770,880) scale(3.7766666666667) rotate(4)"><rect x="0.5" y="0.5" width="5" height="5"/></g>
<g transform="translate(792,880) scale(3.7766666666667) rotate(-3)"><rect x="0.5" y="0.5" width="5" height="5"/></g>
<g transform="translate(814,880) scale(3.7766666666667) rotate(5)"><rect x="0.5" y="0.5" width="5" height="5"/></g>
<g transform="translate(836,880) scale(3.7766666666667) rotate(-1)"><rect x="0.5" y="0.5" width="5" height="5"/></g>
<g transform="translate(858,880) scale(3.7766666666667) rotate(-3)"><rect x="0.5" y="0.5" width="5" height="5"/></g>
<g transform="translate(902,880) scale(3.7766666666667) rotate(2)"><rect x="0.5" y="0.5" width="5" height="5"/></g>
<g transform="translate(242,902) scale(3.7766666666667) rotate(-6)"><rect x="0.5" y="0.5" width="5" height="5"/></g>
<g transform="translate(308,902) scale(3.7766666666667) rotate(-5)"><rect x="0.5" y="0.5" width="5" height="5"/></g>
<g transform="translate(374,902) scale(3.7766666666667) rotate(3)"><rect x="0.5" y="0.5" width="5" height="5"/></g>
<g transform="translate(418,902) scale(3.7766666666667) rotate(7)"><rect x="0.5" y="0.5" width="5" height="5"/></g>
<g transform="translate(440,902) scale(3.7766666666667) rotate(8)"><rect x="0.5" y="0.5" width="5" height="5"/></g>
<g transform="translate(462,902) scale(3.7766666666667) rotate(8)"><rect x="0.5" y="0.5" width="5" height="5"/></g>
<g transform="translate(506,902) scale(3.7766666666667) rotate(-3)"><rect x="0.5" y="0.5" width="5" height="5"/></g>
<g transform="translate(550,902) scale(3.7766666666667) rotate(6)"><rect x="0.5" y="0.5" width="5" height="5"/></g>
<g transform="translate(572,902) scale(3.7766666666667) rotate(2)"><rect x="0.5" y="0.5" width="5" height="5"/></g>
<g transform="translate(594,902) scale(3.7766666666667) rotate(4)"><rect x="0.5" y="0.5" width="5" height="5"/></g>
<g transform="translate(638,902) scale(3.7766666666667) rotate(-6)"><rect x="0.5" y="0.5" width="5" height="5"/></g>
<g transform="translate(704,902) scale(3.7766666666667) rotate(-4)"><rect x="0.5" y="0.5" width="5" height="5"/></g>
<g transform="translate(748,902) scale(3.7766666666667) rotate(9)"><rect x="0.5" y="0.5" width="5" height="5"/></g>
<g transform="translate(770,902) scale(3.7766666666667) rotate(7)"><rect x="0.5" y="0.5" width="5" height="5"/></g>
<g transform="translate(792,902) scale(3.7766666666667) rotate(2)"><rect x="0.5" y="0.5" width="5" height="5"/></g>
<g transform="translate(836,902) scale(3.7766666666667) rotate(-8)"><rect x="0.5" y="0.5" width="5" height="5"/></g>
<g transform="translate(902,902) scale(3.7766666666667) rotate(-3)"><rect x="0.5" y="0.5" width="5" height="5"/></g>
<g transform="translate(242,924) scale(3.7766666666667) rotate(-4)"><rect x="0.5" y="0.5" width="5" height="5"/></g>
<g transform="translate(286,924) scale(3.7766666666667) rotate(4)"><rect x="0.5" y="0.5" width="5" height="5"/></g>
<g transform="translate(308,924) scale(3.7766666666667) rotate(1)"><rect x="0.5" y="0.5" width="5" height="5"/></g>
<g transform="translate(396,924) scale(3.7766666666667) rotate(-2)"><rect x="0.5" y="0.5" width="5" height="5"/></g>
<g transform="translate(418,924) scale(3.7766666666667) rotate(9)"><rect x="0.5" y="0.5" width="5" height="5"/></g>
<g transform="translate(440,924) scale(3.7766666666667) rotate(0)"><rect x="0.5" y="0.5" width="5" height="5"/></g>
<g transform="translate(484,924) scale(3.7766666666667) rotate(9)"><rect x="0.5" y="0.5" width="5" height="5"/></g>
<g transform="translate(528,924) scale(3.7766666666667) rotate(3)"><rect x="0.5" y="0.5" width="5" height="5"/></g>
<g transform="translate(616,924) scale(3.7766666666667) rotate(2)"><rect x="0.5" y="0.5" width="5" height="5"/></g>
<g transform="translate(682,924) scale(3.7766666666667) rotate(10)"><rect x="0.5" y="0.5" width="5" height="5"/></g>
<g transform="translate(814,924) scale(3.7766666666667) rotate(5)"><rect x="0.5" y="0.5" width="5" height="5"/></g>
<g transform="translate(836,924) scale(3.7766666666667) rotate(-5)"><rect x="0.5" y="0.5" width="5" height="5"/></g>
<g transform="translate(858,924) scale(3.7766666666667) rotate(3)"><rect x="0.5" y="0.5" width="5" height="5"/></g>
<g transform="translate(44,44)"><g transform="scale(11)"><path class="st0" d="M13.8,1.8H14V0.2h-0.2V0h-1.6v0.2H12v0L11.7,0L11,0.4L10.3,0L9.7,0.4L9,0L8.3,0.4L7.7,0L7,0.4L6.3,0L5.7,0.4     L5,0L4.3,0.4L3.7,0L3,0.4L2.3,0L2,0.2v0H1.8V0H0.2v0.2H0v1.6h0.2V2h0L0,2.3L0.4,3L0,3.7l0.4,0.7L0,5l0.4,0.7L0,6.3L0.4,7L0,7.7     l0.4,0.7L0,9l0.4,0.7L0,10.3L0.4,11L0,11.7L0.2,12h0v0.2H0v1.6h0.2V14h1.6v-0.2H2v0L2.3,14L3,13.6L3.7,14l0.7-0.4L5,14l0.7-0.4     L6.3,14L7,13.6L7.7,14l0.7-0.4L9,14l0.7-0.4l0.7,0.4l0.7-0.4l0.7,0.4l0.3-0.2v0h0.2V14h1.6v-0.2H14v-1.6h-0.2V12h0l0.2-0.3L13.6,11     l0.4-0.7l-0.4-0.7L14,9l-0.4-0.7L14,7.7L13.6,7L14,6.3l-0.4-0.7L14,5l-0.4-0.7L14,3.7L13.6,3L14,2.3L13.8,2h0V1.8z M12.4,3L12,3.7     l0.4,0.7L12,5l0.4,0.7L12,6.3L12.4,7L12,7.7l0.4,0.7L12,9l0.4,0.7L12,10.3l0.4,0.7L12,11.7l0.2,0.3h0v0.2H12v0L11.7,12L11,12.4     L10.3,12l-0.7,0.4L9,12l-0.7,0.4L7.7,12L7,12.4L6.3,12l-0.7,0.4L5,12l-0.7,0.4L3.7,12L3,12.4L2.3,12L2,12.2v0H1.8V12h0L2,11.7     L1.6,11L2,10.3L1.6,9.7L2,9L1.6,8.3L2,7.7L1.6,7L2,6.3L1.6,5.7L2,5L1.6,4.3L2,3.7L1.6,3L2,2.3L1.8,2h0V1.8H2v0L2.3,2L3,1.6L3.7,2     l0.7-0.4L5,2l0.7-0.4L6.3,2L7,1.6L7.7,2l0.7-0.4L9,2l0.7-0.4L10.3,2L11,1.6L11.7,2L12,1.8v0h0.2V2h0L12,2.3L12.4,3z"/></g></g>
<g transform="translate(792,44)"><g transform="scale(11) rotate(90 7 7)"><path class="st0" d="M13.8,1.8H14V0.2h-0.2V0h-1.6v0.2H12v0L11.7,0L11,0.4L10.3,0L9.7,0.4L9,0L8.3,0.4L7.7,0L7,0.4L6.3,0L5.7,0.4     L5,0L4.3,0.4L3.7,0L3,0.4L2.3,0L2,0.2v0H1.8V0H0.2v0.2H0v1.6h0.2V2h0L0,2.3L0.4,3L0,3.7l0.4,0.7L0,5l0.4,0.7L0,6.3L0.4,7L0,7.7     l0.4,0.7L0,9l0.4,0.7L0,10.3L0.4,11L0,11.7L0.2,12h0v0.2H0v1.6h0.2V14h1.6v-0.2H2v0L2.3,14L3,13.6L3.7,14l0.7-0.4L5,14l0.7-0.4     L6.3,14L7,13.6L7.7,14l0.7-0.4L9,14l0.7-0.4l0.7,0.4l0.7-0.4l0.7,0.4l0.3-0.2v0h0.2V14h1.6v-0.2H14v-1.6h-0.2V12h0l0.2-0.3L13.6,11     l0.4-0.7l-0.4-0.7L14,9l-0.4-0.7L14,7.7L13.6,7L14,6.3l-0.4-0.7L14,5l-0.4-0.7L14,3.7L13.6,3L14,2.3L13.8,2h0V1.8z M12.4,3L12,3.7     l0.4,0.7L12,5l0.4,0.7L12,6.3L12.4,7L12,7.7l0.4,0.7L12,9l0.4,0.7L12,10.3l0.4,0.7L12,11.7l0.2,0.3h0v0.2H12v0L11.7,12L11,12.4     L10.3,12l-0.7,0.4L9,12l-0.7,0.4L7.7,12L7,12.4L6.3,12l-0.7,0.4L5,12l-0.7,0.4L3.7,12L3,12.4L2.3,12L2,12.2v0H1.8V12h0L2,11.7     L1.6,11L2,10.3L1.6,9.7L2,9L1.6,8.3L2,7.7L1.6,7L2,6.3L1.6,5.7L2,5L1.6,4.3L2,3.7L1.6,3L2,2.3L1.8,2h0V1.8H2v0L2.3,2L3,1.6L3.7,2     l0.7-0.4L5,2l0.7-0.4L6.3,2L7,1.6L7.7,2l0.7-0.4L9,2l0.7-0.4L10.3,2L11,1.6L11.7,2L12,1.8v0h0.2V2h0L12,2.3L12.4,3z"/></g></g>
<g transform="translate(44,792)"><g transform="scale(11) rotate(-90 7 7)"><path class="st0" d="M13.8,1.8H14V0.2h-0.2V0h-1.6v0.2H12v0L11.7,0L11,0.4L10.3,0L9.7,0.4L9,0L8.3,0.4L7.7,0L7,0.4L6.3,0L5.7,0.4     L5,0L4.3,0.4L3.7,0L3,0.4L2.3,0L2,0.2v0H1.8V0H0.2v0.2H0v1.6h0.2V2h0L0,2.3L0.4,3L0,3.7l0.4,0.7L0,5l0.4,0.7L0,6.3L0.4,7L0,7.7     l0.4,0.7L0,9l0.4,0.7L0,10.3L0.4,11L0,11.7L0.2,12h0v0.2H0v1.6h0.2V14h1.6v-0.2H2v0L2.3,14L3,13.6L3.7,14l0.7-0.4L5,14l0.7-0.4     L6.3,14L7,13.6L7.7,14l0.7-0.4L9,14l0.7-0.4l0.7,0.4l0.7-0.4l0.7,0.4l0.3-0.2v0h0.2V14h1.6v-0.2H14v-1.6h-0.2V12h0l0.2-0.3L13.6,11     l0.4-0.7l-0.4-0.7L14,9l-0.4-0.7L14,7.7L13.6,7L14,6.3l-0.4-0.7L14,5l-0.4-0.7L14,3.7L13.6,3L14,2.3L13.8,2h0V1.8z M12.4,3L12,3.7     l0.4,0.7L12,5l0.4,0.7L12,6.3L12.4,7L12,7.7l0.4,0.7L12,9l0.4,0.7L12,10.3l0.4,0.7L12,11.7l0.2,0.3h0v0.2H12v0L11.7,12L11,12.4     L10.3,12l-0.7,0.4L9,12l-0.7,0.4L7.7,12L7,12.4L6.3,12l-0.7,0.4L5,12l-0.7,0.4L3.7,12L3,12.4L2.3,12L2,12.2v0H1.8V12h0L2,11.7     L1.6,11L2,10.3L1.6,9.7L2,9L1.6,8.3L2,7.7L1.6,7L2,6.3L1.6,5.7L2,5L1.6,4.3L2,3.7L1.6,3L2,2.3L1.8,2h0V1.8H2v0L2.3,2L3,1.6L3.7,2     l0.7-0.4L5,2l0.7-0.4L6.3,2L7,1.6L7.7,2l0.7-0.4L9,2l0.7-0.4L10.3,2L11,1.6L11.7,2L12,1.8v0h0.2V2h0L12,2.3L12.4,3z"/></g></g>
<g transform="translate(88,88)"><g transform="scale(11)"><rect width="6" height="6"/></g></g>
<g transform="translate(836,88)"><g transform="scale(11)"><rect width="6" height="6"/></g></g>
<g transform="translate(88,836)"><g transform="scale(11)"><rect width="6" height="6"/></g></g>
</g></g></mask></defs><rect x="0" y="0" width="990" height="990" mask="url(#qrmask)" fill="url(#pattern-mask)"/></svg>
